<svg width="63" height="50" viewBox="0 0 63 50" fill="none" xmlns="http://www.w3.org/2000/svg">
<path d="M40.6826 47.6101H37.383C37.0356 47.6101 36.7534 47.3253 36.7534 46.9747V43.6438C36.7534 43.2932 37.0356 43.0083 37.383 43.0083H40.6826C41.0299 43.0083 41.3121 43.2932 41.3121 43.6438V46.9747C41.3338 47.3253 41.0516 47.6101 40.6826 47.6101Z" stroke="black" stroke-miterlimit="10"/>
<path d="M7.27393 33.9581H3.97427C3.62694 33.9581 3.34473 33.6732 3.34473 33.3226V29.9917C3.34473 29.6411 3.62694 29.3562 3.97427 29.3562H7.27393C7.62126 29.3562 7.90345 29.6411 7.90345 29.9917V33.3226C7.92515 33.6513 7.62126 33.9581 7.27393 33.9581Z" stroke="black" stroke-miterlimit="10"/>
<path d="M13.439 20.7441C15.4795 24.0093 18.0845 27.4497 21.1888 30.8682" stroke="black" stroke-miterlimit="10"/>
<path d="M41.3339 46.7775C46.6307 49.2975 50.9724 49.8015 53.0998 47.6321C57.3546 43.337 51.1677 30.0793 39.2499 18.0707C27.3321 6.04013 14.2204 -0.227156 9.96558 4.08982C7.99013 6.08396 8.27236 10.0065 10.3129 14.8494" stroke="black" stroke-miterlimit="10"/>
<path d="M21.167 30.8682C22.0136 31.7885 22.8819 32.7308 23.7937 33.6512C28.1136 38.012 32.5855 41.6058 36.7318 44.2135" stroke="black" stroke-miterlimit="10"/>
<path d="M49.9735 2.75311C45.1977 2.31484 37.2959 6.21546 29.2422 13.0306" stroke="black" stroke-miterlimit="10"/>
<path d="M23.7934 18.0707C11.8756 30.1013 5.66709 43.3371 9.94361 47.6321C13.8728 51.5985 25.3781 46.5803 36.4927 36.3028C37.4045 35.4482 38.3379 34.5716 39.2497 33.6513C49.9952 22.804 56.0952 10.9488 54.0547 5.57996" stroke="black" stroke-miterlimit="10"/>
<path d="M3.32277 30.0793C1.8249 28.7864 1 27.362 1 25.8719C1 19.7799 14.6544 14.8494 31.5 14.8494C48.3456 14.8494 62 19.7799 62 25.8719C62 30.9339 52.5352 35.2071 39.6623 36.5" stroke="black" stroke-miterlimit="10"/>
<path d="M31.5216 36.8726C30.2408 36.8726 28.96 36.8506 27.7227 36.7849C19.7558 36.4343 12.7657 34.9661 7.9248 32.8405" stroke="black" stroke-miterlimit="10"/>
<path d="M27.9181 27.4935C27.4406 27.4935 27.0498 27.0991 27.0498 26.617V22.1247C27.0498 21.6426 27.4406 21.2482 27.9181 21.2482H32.3683C32.8459 21.2482 33.2366 21.6426 33.2366 22.1247" stroke="black" stroke-miterlimit="10"/>
<path d="M35.1906 30.3643H30.7404C30.2628 30.3643 29.8721 29.9698 29.8721 29.4877V24.9954C29.8721 24.5133 30.2628 24.1189 30.7404 24.1189H35.1906C35.6682 24.1189 36.0589 24.5133 36.0589 24.9954V29.4877C36.0372 29.9917 35.6464 30.3643 35.1906 30.3643Z" stroke="black" stroke-miterlimit="10"/>
<path d="M53.9248 5.60185H50.6251C50.2778 5.60185 49.9956 5.31697 49.9956 4.96636V1.63549C49.9956 1.28488 50.2778 1 50.6251 1H53.9248C54.2721 1 54.5543 1.28488 54.5543 1.63549V4.96636C54.576 5.29506 54.2938 5.60185 53.9248 5.60185Z" stroke="black" stroke-miterlimit="10"/>
</svg>
