<svg width="61" height="63" viewBox="0 0 61 63" fill="none" xmlns="http://www.w3.org/2000/svg">
<path d="M9.56373 42.0896H3.42599C2.09169 42.0896 1 40.9916 1 39.6496V3.44C1 2.098 2.09169 1 3.42599 1H9.56373" stroke="#0B0033" stroke-miterlimit="10"/>
<path d="M60 39.6496C60 40.9916 58.9083 42.0896 57.574 42.0896H6.33712C5.00283 42.0896 3.91113 40.9916 3.91113 39.6496V3.44C3.91113 2.098 5.00283 1 6.33712 1H57.574C58.9083 1 60 2.098 60 3.44V33.4032" stroke="#0B0033" stroke-miterlimit="10"/>
<path d="M9.00586 62L16.017 42.0896H43.3093L50.3204 62" stroke="#0B0033" stroke-miterlimit="10"/>
<path d="M39.7915 42.0896L46.8026 62" stroke="#0B0033" stroke-miterlimit="10"/>
<path d="M12.3779 62L19.4133 42.0896" stroke="#0B0033" stroke-miterlimit="10"/>
<path d="M8.22949 38.9664H20.3109" stroke="#0B0033" stroke-miterlimit="10"/>
</svg>
