<svg width="63" height="69" viewBox="0 0 63 69" fill="none" xmlns="http://www.w3.org/2000/svg">
<path d="M31.5547 48.7134C28.9314 50.4518 25.3806 49.7297 23.6582 47.0819" stroke="#0B0033" stroke-miterlimit="10"/>
<path d="M27.3943 44.5946L43.7703 43.2573L51.0043 42.6689L61.6831 41.7863C61.948 41.7596 62.0805 41.4921 61.948 41.2782C58.7418 25.6858 50.5538 12.3934 37.7817 1.16047C37.6492 0.94651 37.3312 0.94651 37.1987 1.16047L31.3161 10.6015L27.4739 16.7796L22.8896 24.1346" stroke="#0B0033" stroke-miterlimit="10"/>
<path d="M7.83887 37.4001L16.6893 31.9708C17.9347 31.1952 19.5776 31.5964 20.3195 32.8801L27.3945 44.6213L16.2918 51.4413L7.83887 37.4001Z" stroke="#0B0033" stroke-miterlimit="10"/>
<path d="M10.7005 54.838L16.2916 51.4146L7.86516 37.4001L2.27404 40.8235C1.02862 41.5991 0.631142 43.2306 1.37309 44.4876L7.07021 53.9286C7.81216 55.2124 9.42854 55.6136 10.7005 54.838Z" stroke="#0B0033" stroke-miterlimit="10"/>
<path d="M29.6466 54.0624L34.3368 59.1439C35.4763 60.3742 35.2113 62.3801 33.7804 63.2627L29.9646 65.6163C28.9047 66.2849 27.5003 66.0709 26.6523 65.1616L14.8076 52.3507" stroke="#0B0033" stroke-miterlimit="10"/>
<path d="M31.6873 64.5465L26.9441 67.4885C25.8842 68.1571 24.4797 67.9431 23.6318 67.0338L11.7871 54.2229" stroke="#0B0033" stroke-miterlimit="10"/>
<path d="M50.9775 42.6689L43.7435 43.2573C41.2527 32.7197 35.4231 23.4926 27.4736 16.7528L31.3159 10.5747C41.1202 18.5983 48.1952 29.8312 50.9775 42.6689Z" stroke="#0B0033" stroke-miterlimit="10"/>
</svg>
