<svg width="343" height="61" viewBox="0 0 343 61" fill="none" xmlns="http://www.w3.org/2000/svg">
<mask id="path-1-inside-1_185_24953" fill="white">
<path fill-rule="evenodd" clip-rule="evenodd" d="M306 58.7612L343 30.1538L306 1.54635V0.388689H304.503L304 0V0.388689H20C8.95431 0.388689 0 9.34301 0 20.3887V39.7673C0 50.813 8.9543 59.7673 20 59.7673H304V60.3076L304.699 59.7673H306V58.7612Z"/>
</mask>
<path fill-rule="evenodd" clip-rule="evenodd" d="M306 58.7612L343 30.1538L306 1.54635V0.388689H304.503L304 0V0.388689H20C8.95431 0.388689 0 9.34301 0 20.3887V39.7673C0 50.813 8.9543 59.7673 20 59.7673H304V60.3076L304.699 59.7673H306V58.7612Z" fill="url(#paint0_linear_185_24953)"/>
<path d="M343 30.1538L343.612 30.9449L344.635 30.1538L343.612 29.3627L343 30.1538ZM306 58.7612L305.388 57.9701L305 58.2704V58.7612H306ZM306 1.54635H305V2.03721L305.388 2.33746L306 1.54635ZM306 0.388689H307V-0.611311H306V0.388689ZM304.503 0.388689L303.891 1.1798L304.161 1.38869H304.503V0.388689ZM304 0L304.612 -0.791112L303 -2.03722V0H304ZM304 0.388689V1.38869H305V0.388689H304ZM304 59.7673H305V58.7673H304V59.7673ZM304 60.3076H303V62.3448L304.612 61.0987L304 60.3076ZM304.699 59.7673V58.7673H304.357L304.087 58.9762L304.699 59.7673ZM306 59.7673V60.7673H307V59.7673H306ZM342.388 29.3627L305.388 57.9701L306.612 59.5523L343.612 30.9449L342.388 29.3627ZM305.388 2.33746L342.388 30.9449L343.612 29.3627L306.612 0.755234L305.388 2.33746ZM305 0.388689V1.54635H307V0.388689H305ZM304.503 1.38869H306V-0.611311H304.503V1.38869ZM303.388 0.791112L303.891 1.1798L305.114 -0.402423L304.612 -0.791112L303.388 0.791112ZM305 0.388689V0H303V0.388689H305ZM20 1.38869H304V-0.611311H20V1.38869ZM1 20.3887C1 9.8953 9.50659 1.38869 20 1.38869V-0.611311C8.40202 -0.611311 -1 8.79073 -1 20.3887H1ZM1 39.7673V20.3887H-1V39.7673H1ZM20 58.7673C9.50659 58.7673 1 50.2607 1 39.7673H-1C-1 51.3653 8.40202 60.7673 20 60.7673V58.7673ZM304 58.7673H20V60.7673H304V58.7673ZM305 60.3076V59.7673H303V60.3076H305ZM304.087 58.9762L303.388 59.5165L304.612 61.0987L305.31 60.5584L304.087 58.9762ZM306 58.7673H304.699V60.7673H306V58.7673ZM305 58.7612V59.7673H307V58.7612H305Z" fill="#8C9B64" mask="url(#path-1-inside-1_185_24953)"/>
<defs>
<linearGradient id="paint0_linear_185_24953" x1="1.4891e-06" y1="30" x2="343" y2="30" gradientUnits="userSpaceOnUse">
<stop stop-color="#F4C3FC"/>
<stop offset="1" stop-color="#A698D7"/>
</linearGradient>
</defs>
</svg>
