<svg width="370" height="62" viewBox="0 0 370 62" fill="none" xmlns="http://www.w3.org/2000/svg">
<mask id="path-1-inside-1_185_24950" fill="white">
<path fill-rule="evenodd" clip-rule="evenodd" d="M330.087 59.4537L370 30.8463L330.087 2.23884V1.08117H328.472L327.25 0.205078V1.08117H20C8.95431 1.08117 0 10.0355 0 21.0812V40.4598C0 51.5055 8.95428 60.4598 20 60.4598H327.25V61.4875L328.684 60.4598H330.087V59.4537Z"/>
</mask>
<path fill-rule="evenodd" clip-rule="evenodd" d="M330.087 59.4537L370 30.8463L330.087 2.23884V1.08117H328.472L327.25 0.205078V1.08117H20C8.95431 1.08117 0 10.0355 0 21.0812V40.4598C0 51.5055 8.95428 60.4598 20 60.4598H327.25V61.4875L328.684 60.4598H330.087V59.4537Z" fill="url(#paint0_linear_185_24950)"/>
<path d="M370 30.8463L370.583 31.6591L371.717 30.8463L370.583 30.0335L370 30.8463ZM330.087 59.4537L329.505 58.6409L329.087 58.9401V59.4537H330.087ZM330.087 2.23884H329.087V2.75243L329.505 3.05162L330.087 2.23884ZM330.087 1.08117H331.087V0.0811658H330.087V1.08117ZM328.472 1.08117L327.89 1.89395L328.151 2.08117H328.472V1.08117ZM327.25 0.205078L327.833 -0.607703L326.25 -1.74202V0.205078H327.25ZM327.25 1.08117V2.08117H328.25V1.08117H327.25ZM327.25 60.4598H328.25V59.4598H327.25V60.4598ZM327.25 61.4875H326.25V63.4346L327.833 62.3003L327.25 61.4875ZM328.684 60.4598V59.4598H328.363L328.101 59.647L328.684 60.4598ZM330.087 60.4598V61.4598H331.087V60.4598H330.087ZM369.417 30.0335L329.505 58.6409L330.67 60.2665L370.583 31.6591L369.417 30.0335ZM329.505 3.05162L369.417 31.6591L370.583 30.0335L330.67 1.42606L329.505 3.05162ZM329.087 1.08117V2.23884H331.087V1.08117H329.087ZM328.472 2.08117H330.087V0.0811658H328.472V2.08117ZM326.667 1.01786L327.89 1.89395L329.055 0.268384L327.833 -0.607703L326.667 1.01786ZM328.25 1.08117V0.205078H326.25V1.08117H328.25ZM20 2.08117H327.25V0.0811658H20V2.08117ZM1 21.0812C1 10.5878 9.50659 2.08117 20 2.08117V0.0811658C8.40202 0.0811658 -1 9.48321 -1 21.0812H1ZM1 40.4598V21.0812H-1V40.4598H1ZM20 59.4598C9.50656 59.4598 1 50.9532 1 40.4598H-1C-1 52.0577 8.40199 61.4598 20 61.4598V59.4598ZM327.25 59.4598H20V61.4598H327.25V59.4598ZM328.25 61.4875V60.4598H326.25V61.4875H328.25ZM328.101 59.647L326.667 60.6747L327.833 62.3003L329.266 61.2725L328.101 59.647ZM330.087 59.4598H328.684V61.4598H330.087V59.4598ZM329.087 59.4537V60.4598H331.087V59.4537H329.087Z" fill="#8C9B64" mask="url(#path-1-inside-1_185_24950)"/>
<defs>
<linearGradient id="paint0_linear_185_24950" x1="-290" y1="37" x2="370" y2="37" gradientUnits="userSpaceOnUse">
<stop stop-color="#F4C3FC"/>
<stop offset="1" stop-color="#A698D7"/>
</linearGradient>
</defs>
</svg>
