<svg width="390" height="61" viewBox="0 0 390 61" fill="none" xmlns="http://www.w3.org/2000/svg">
<mask id="path-1-inside-1_185_24947" fill="white">
<path fill-rule="evenodd" clip-rule="evenodd" d="M347.93 59.4536L390 30.8462L347.93 2.23873V1.08107H346.228L345.656 0.692383V1.08107H20C8.9543 1.08107 0 10.0354 0 21.0811V40.4597C0 51.5054 8.95433 60.4597 20 60.4597H345.656V61L346.451 60.4597H347.93V59.4536Z"/>
</mask>
<path fill-rule="evenodd" clip-rule="evenodd" d="M347.93 59.4536L390 30.8462L347.93 2.23873V1.08107H346.228L345.656 0.692383V1.08107H20C8.9543 1.08107 0 10.0354 0 21.0811V40.4597C0 51.5054 8.95433 60.4597 20 60.4597H345.656V61L346.451 60.4597H347.93V59.4536Z" fill="url(#paint0_linear_185_24947)"/>
<path d="M390 30.8462L390.562 31.6731L391.778 30.8462L390.562 30.0192L390 30.8462ZM347.93 59.4536L347.368 58.6267L346.93 58.9243V59.4536H347.93ZM347.93 2.23873H346.93V2.76803L347.368 3.06566L347.93 2.23873ZM347.93 1.08107H348.93V0.0810719H347.93V1.08107ZM346.228 1.08107L345.665 1.908L345.92 2.08107H346.228V1.08107ZM345.656 0.692383L346.218 -0.13454L344.656 -1.19693V0.692383H345.656ZM345.656 1.08107V2.08107H346.656V1.08107H345.656ZM345.656 60.4597H346.656V59.4597H345.656V60.4597ZM345.656 61H344.656V62.8893L346.218 61.8269L345.656 61ZM346.451 60.4597V59.4597H346.143L345.888 59.6327L346.451 60.4597ZM347.93 60.4597V61.4597H348.93V60.4597H347.93ZM389.438 30.0192L347.368 58.6267L348.492 60.2805L390.562 31.6731L389.438 30.0192ZM347.368 3.06566L389.438 31.6731L390.562 30.0192L348.492 1.4118L347.368 3.06566ZM346.93 1.08107V2.23873H348.93V1.08107H346.93ZM346.228 2.08107H347.93V0.0810719H346.228V2.08107ZM345.094 1.51931L345.665 1.908L346.79 0.254149L346.218 -0.13454L345.094 1.51931ZM346.656 1.08107V0.692383H344.656V1.08107H346.656ZM20 2.08107H345.656V0.0810719H20V2.08107ZM1 21.0811C1 10.5877 9.50659 2.08107 20 2.08107V0.0810719C8.40202 0.0810719 -1 9.48311 -1 21.0811H1ZM1 40.4597V21.0811H-1V40.4597H1ZM20 59.4597C9.50661 59.4597 1 50.9531 1 40.4597H-1C-1 52.0576 8.40205 61.4597 20 61.4597V59.4597ZM345.656 59.4597H20V61.4597H345.656V59.4597ZM346.656 61V60.4597H344.656V61H346.656ZM345.888 59.6327L345.094 60.173L346.218 61.8269L347.013 61.2866L345.888 59.6327ZM347.93 59.4597H346.451V61.4597H347.93V59.4597ZM346.93 59.4536V60.4597H348.93V59.4536H346.93Z" fill="#8C9B64" mask="url(#path-1-inside-1_185_24947)"/>
<defs>
<linearGradient id="paint0_linear_185_24947" x1="16.5" y1="31" x2="400.5" y2="31" gradientUnits="userSpaceOnUse">
<stop stop-color="#F4C3FC"/>
<stop offset="1" stop-color="#A698D7"/>
</linearGradient>
</defs>
</svg>
