<svg width="47" height="40" viewBox="0 0 47 40" fill="none" xmlns="http://www.w3.org/2000/svg">
<rect x="1.30469" y="0.5" width="44.2973" height="39" rx="4.5" stroke="#E75213"/>
<path fill-rule="evenodd" clip-rule="evenodd" d="M15.2918 15.499H15.2696C14.3554 15.499 13.6034 15.2376 13.0136 14.7149C12.4238 14.1921 12.1289 13.537 12.1289 12.7495C12.1289 11.9484 12.4312 11.2899 13.0357 10.7739C13.6403 10.258 14.407 10 15.336 10C16.2355 10 16.9801 10.2546 17.5699 10.7637C18.1597 11.2729 18.462 11.928 18.4767 12.7291C18.4767 13.5302 18.1781 14.1921 17.5809 14.7149C16.9838 15.2376 16.2207 15.499 15.2918 15.499ZM29.602 29.9796H34.2025C34.3647 29.9796 34.5011 29.9287 34.6117 29.8269C34.7223 29.725 34.7776 29.5995 34.7776 29.4501V22.1385C34.7776 21.1473 34.6448 20.2648 34.3794 19.4908C34.114 18.7169 33.727 18.0584 33.2182 17.5153C32.7095 16.9722 32.0939 16.558 31.3714 16.2729C30.6489 15.9878 29.8232 15.8452 28.8942 15.8452C28.0685 15.8452 27.3644 15.9606 26.782 16.1914C26.1995 16.4223 25.7166 16.6938 25.3332 17.0061V16.7006C25.3332 16.5513 25.2743 16.4223 25.1563 16.3136C25.0383 16.205 24.8983 16.1507 24.7361 16.1507H20.1356C20.0618 16.1507 19.9881 16.1643 19.9144 16.1914C19.8407 16.2186 19.7743 16.2593 19.7153 16.3136C19.6563 16.368 19.6121 16.4291 19.5826 16.4969C19.5531 16.5648 19.5457 16.6395 19.5605 16.721C19.5752 17.0061 19.5826 17.8276 19.5826 19.1853C19.5826 20.5431 19.5789 21.9756 19.5716 23.4827C19.5642 24.9898 19.5605 26.3544 19.5605 27.5764V29.4501C19.5457 29.518 19.5568 29.5859 19.5937 29.6538C19.6305 29.7217 19.6711 29.7828 19.7153 29.8371C19.7743 29.8914 19.8407 29.9321 19.9144 29.9593C19.9881 29.9864 20.0618 30 20.1356 30H24.7361C24.8983 30 25.0383 29.9457 25.1563 29.8371C25.2743 29.7284 25.3332 29.5995 25.3332 29.4501V22.3218C25.3332 22.1317 25.3443 21.9654 25.3664 21.8228C25.3885 21.6802 25.4143 21.5682 25.4438 21.4868C25.5323 21.3103 25.7129 21.0659 25.9857 20.7536C26.2585 20.4413 26.6824 20.2851 27.2575 20.2851C27.4787 20.2851 27.8252 20.3836 28.297 20.5804C28.7689 20.7773 29.0048 21.4596 29.0048 22.6273V29.4501C29.0048 29.5995 29.0638 29.725 29.1817 29.8269C29.2997 29.9287 29.4398 29.9796 29.602 29.9796ZM33.6053 28.9002H30.177V22.6273C30.177 21.5275 29.9227 20.6789 29.414 20.0815C28.9053 19.484 28.1864 19.1853 27.2575 19.1853C26.6087 19.1853 26.0263 19.3551 25.5102 19.6945C24.9941 20.0339 24.6107 20.4956 24.3601 21.0794C24.2863 21.2288 24.2347 21.4053 24.2052 21.609C24.1757 21.8126 24.161 22.0502 24.161 22.3218V28.9002H20.7327C20.7327 28.3842 20.7364 27.59 20.7438 26.5173C20.7512 25.4447 20.7549 24.3143 20.7549 23.1263V19.7149C20.7549 18.6286 20.7475 17.8004 20.7327 17.2301H24.161V18.3707C24.1315 18.4386 24.1205 18.5098 24.1278 18.5845C24.1352 18.6592 24.161 18.7305 24.2052 18.7984C24.2642 18.8934 24.3379 18.9647 24.4264 19.0122C24.5149 19.0597 24.6107 19.0835 24.7139 19.0835H24.7582C24.8909 19.0835 25.0088 19.0462 25.1121 18.9715C25.2153 18.8968 25.2816 18.8052 25.3111 18.6965C25.6208 18.2756 26.0447 17.8785 26.5829 17.5051C27.1211 17.1317 27.8915 16.945 28.8942 16.945C29.6462 16.945 30.3134 17.0604 30.8959 17.2912C31.4783 17.5221 31.9723 17.8581 32.3778 18.2994C32.7833 18.7407 33.0892 19.2838 33.2957 19.9287C33.5021 20.5737 33.6053 21.3102 33.6053 22.1385V28.9002ZM17.592 29.9796H12.9915C12.8293 29.9796 12.6892 29.9287 12.5713 29.8269C12.4533 29.725 12.3943 29.5995 12.3943 29.4501V16.7006C12.3943 16.5513 12.4533 16.4223 12.5713 16.3136C12.6892 16.205 12.8293 16.1507 12.9915 16.1507H17.592C17.7542 16.1507 17.8943 16.205 18.0122 16.3136C18.1302 16.4223 18.1892 16.5513 18.1892 16.7006V29.4501C18.1892 29.5995 18.1302 29.725 18.0122 29.8269C17.8943 29.9287 17.7542 29.9796 17.592 29.9796ZM17.0169 28.9002H13.5887V17.2301H17.0169V28.9002ZM13.8652 11.5377C14.2412 11.2322 14.7314 11.0794 15.336 11.0794C15.9258 11.0794 16.3976 11.2322 16.7515 11.5377C17.1054 11.8432 17.2897 12.2471 17.3045 12.7495C17.3045 13.2519 17.1202 13.6558 16.7515 13.9613C16.3829 14.2668 15.8963 14.4196 15.2918 14.4196H15.2696C14.6946 14.4196 14.2227 14.2634 13.8541 13.9511C13.4855 13.6388 13.3012 13.2383 13.3012 12.7495C13.3012 12.2471 13.4892 11.8432 13.8652 11.5377Z" fill="#E75213"/>
</svg>
