<svg width="135" height="34" viewBox="0 0 135 34" fill="none" xmlns="http://www.w3.org/2000/svg">
<mask id="mask0_406_3467" style="mask-type:luminance" maskUnits="userSpaceOnUse" x="0" y="0" width="29" height="34">
<path d="M21.0849 0.0999146V17.6673L0 0.549859V34H7.50033V16.4718L28.6309 33.8435V0.0999146H21.0849Z" fill="white"/>
</mask>
<g mask="url(#mask0_406_3467)">
<path d="M28.5615 -21.6406V45.7204H-38.8501V-21.6406H28.5615Z" fill="white"/>
<path d="M28.5608 33.1569L23.3184 35.7L28.5608 41.0037V33.1569Z" fill="url(#paint0_linear_406_3467)"/>
<path d="M10.9414 38.1997L23.3187 35.7L15.3572 20.3976L10.9414 38.1997Z" fill="url(#paint1_linear_406_3467)"/>
<path d="M28.5618 30.4181L15.3579 20.3976L23.3194 35.7L28.5618 33.1568V30.4181Z" fill="url(#paint2_linear_406_3467)"/>
<path d="M-0.870605 37.0912L10.9411 38.1997L1.04363 24.8536L-0.870605 37.0912Z" fill="url(#paint3_linear_406_3467)"/>
<path d="M1.04395 24.8536L10.9414 38.1998L7.0912 22.8973L1.04395 24.8536Z" fill="url(#paint4_linear_406_3467)"/>
<path d="M10.9415 38.1997L15.3573 20.3976L7.09131 22.8973L10.9415 38.1997Z" fill="url(#paint5_linear_406_3467)"/>
<path d="M-8.30957 19.0065L1.04409 24.8536L0.78306 17.3328L-8.30957 19.0065Z" fill="url(#paint6_linear_406_3467)"/>
<path d="M1.04424 24.8536L7.09149 22.8973L0.783203 17.3328L1.04424 24.8536Z" fill="url(#paint7_linear_406_3467)"/>
<path d="M3.24126 10.0947L7.09149 22.8974L0.783203 17.3329L3.24126 10.0947Z" fill="url(#paint8_linear_406_3467)"/>
<path d="M5.17725 7.02972L14.5309 -1.03448L16.1841 10.3771L5.17725 7.02972Z" fill="url(#paint9_linear_406_3467)"/>
<path d="M28.5613 4.63871L14.5308 -1.03448L16.184 10.3771L28.5613 5.50817V4.63871Z" fill="url(#paint10_linear_406_3467)"/>
<path d="M-7.48291 -7.72919L5.17717 7.02982L-7.20013 4.24756L-7.48291 -7.72919Z" fill="url(#paint11_linear_406_3467)"/>
<path d="M0.78256 17.3327L3.24062 10.0945L-7.20068 4.24744L0.78256 17.3327Z" fill="url(#paint12_linear_406_3467)"/>
<path d="M3.24062 10.0945L5.17661 7.02969L-7.20068 4.24744L3.24062 10.0945Z" fill="url(#paint13_linear_406_3467)"/>
<path d="M-8.30938 19.0066L0.783251 17.3329L-11.333 15.3766L-8.30938 19.0066Z" fill="url(#paint14_linear_406_3467)"/>
<path d="M-7.19999 4.24744L0.783251 17.3327L-11.333 15.3765L-7.19999 4.24744Z" fill="url(#paint15_linear_406_3467)"/>
<path d="M28.5613 3.2258L22.4923 -7.16418L14.5308 -1.03453L28.5613 4.63867V3.2258Z" fill="url(#paint16_linear_406_3467)"/>
<path d="M28.5612 -8.18573L22.4922 -7.16412L28.5612 3.22587V-8.18573Z" fill="url(#paint17_linear_406_3467)"/>
<path d="M-8.30969 19.0063L1.04397 24.8534L-13.2476 32.0916L-8.30969 19.0063Z" fill="url(#paint18_linear_406_3467)"/>
<path d="M-0.870268 37.0912L1.04397 24.8536L-13.2476 32.0918L-0.870268 37.0912Z" fill="url(#paint19_linear_406_3467)"/>
<path d="M-7.48291 -7.72926L5.17717 7.02974L10.115 -11.9026L-7.48291 -7.72926Z" fill="url(#paint20_linear_406_3467)"/>
<path d="M5.17725 7.02974L14.5309 -1.03446L10.1151 -11.9026L5.17725 7.02974Z" fill="url(#paint21_linear_406_3467)"/>
<path d="M3.24121 10.0946L5.1772 7.02972L14.7919 14.2679L3.24121 10.0946Z" fill="url(#paint22_linear_406_3467)"/>
<path d="M3.24121 10.0947L7.09144 22.8974L14.7919 14.268L3.24121 10.0947Z" fill="url(#paint23_linear_406_3467)"/>
<path d="M5.17725 7.02972L16.1841 10.3771L14.7919 14.2679L5.17725 7.02972Z" fill="url(#paint24_linear_406_3467)"/>
<path d="M7.09131 22.8972L15.3573 20.3975L14.7918 14.2679L7.09131 22.8972Z" fill="url(#paint25_linear_406_3467)"/>
<path d="M28.561 10.79L14.7915 14.2679L15.3571 20.3975L28.561 12.7463V10.79Z" fill="url(#paint26_linear_406_3467)"/>
<path d="M28.561 9.61639L16.1837 10.3772L14.7915 14.268L28.561 10.7902V9.61639Z" fill="url(#paint27_linear_406_3467)"/>
<path d="M28.5618 12.7463L15.3579 20.3975L28.5618 30.418V12.7463Z" fill="url(#paint28_linear_406_3467)"/>
<path d="M28.5614 5.50812L16.1841 10.3771L28.5614 9.61629V5.50812Z" fill="url(#paint29_linear_406_3467)"/>
</g>
<mask id="mask1_406_3467" style="mask-type:luminance" maskUnits="userSpaceOnUse" x="28" y="0" width="36" height="34">
<path d="M54.6808 0L36.1758 18.1651L36.3824 0H28.2295V33.8914L63.7473 0H54.6808Z" fill="white"/>
</mask>
<g mask="url(#mask1_406_3467)">
<path d="M54.7959 -4.44781L56.1228 1.11669L63.0837 -4.44781H54.7959Z" fill="url(#paint30_linear_406_3467)"/>
<path d="M37.3717 -4.44781L28.4531 14.5498V16.3322L30.7372 17.5494L37.437 -4.44781H37.3717Z" fill="url(#paint31_linear_406_3467)"/>
<path d="M28.4531 16.3322V23.9399L30.7372 17.5495L28.4531 16.3322Z" fill="url(#paint32_linear_406_3467)"/>
<path d="M75.3086 42.5246L69.6529 31.8738L60.7778 38.7642L73.873 42.5246H75.3086Z" fill="url(#paint33_linear_406_3467)"/>
<path d="M37.4367 -4.44781L30.7368 17.5494L38.7853 16.5061L37.5237 -4.44781H37.4367Z" fill="url(#paint34_linear_406_3467)"/>
<path d="M37.5239 -4.44781L38.7856 16.5061L49.3574 12.7891L37.6979 -4.44781H37.5239Z" fill="url(#paint35_linear_406_3467)"/>
<path d="M52.1206 -4.44781L52.3164 -0.470059L56.1231 1.11669L54.7962 -4.44781H52.1206Z" fill="url(#paint36_linear_406_3467)"/>
<path d="M56.1225 1.11666L49.3574 12.7891L52.3158 -0.470093L56.1225 1.11666Z" fill="url(#paint37_linear_406_3467)"/>
<path d="M37.6978 -4.44781L49.3572 12.7891L52.3156 -0.470059L38.4809 -4.44781H37.6978Z" fill="url(#paint38_linear_406_3467)"/>
<path d="M56.1225 1.1167L49.3574 12.7891L59.0809 6.94205L56.1225 1.1167Z" fill="url(#paint39_linear_406_3467)"/>
<path d="M51.0541 34.0039L49.3574 12.7892L59.0809 6.94208L51.0541 34.0039Z" fill="url(#paint40_linear_406_3467)"/>
<path d="M69.6524 31.8738L60.7773 38.7642L60.3423 37.7209L69.6524 31.8738Z" fill="url(#paint41_linear_406_3467)"/>
<path d="M69.6529 31.8737L59.0811 6.94208L60.3427 37.7208L69.6529 31.8737Z" fill="url(#paint42_linear_406_3467)"/>
<path d="M59.081 6.94208L51.0542 34.0039L60.3426 37.7208L59.081 6.94208Z" fill="url(#paint43_linear_406_3467)"/>
<path d="M28.4531 -4.44781V14.5498L37.3717 -4.44781H28.4531Z" fill="url(#paint44_linear_406_3467)"/>
<path d="M69.6529 31.8737L59.0811 6.94203L67.1078 -1.53516L69.6529 31.8737Z" fill="url(#paint45_linear_406_3467)"/>
<path d="M63.0834 -4.44781L56.1226 1.11669L67.1077 -1.53514L66.0853 -4.44781H63.0834Z" fill="url(#paint46_linear_406_3467)"/>
<path d="M59.0809 6.94203L56.1226 1.11668L67.1077 -1.53516L59.0809 6.94203Z" fill="url(#paint47_linear_406_3467)"/>
<path d="M40.3084 42.5246L30.7372 17.5495L28.4531 23.94V41.177L34.2611 42.5246H40.3084Z" fill="url(#paint48_linear_406_3467)"/>
<path d="M41.1346 42.5246L44.2888 22.8532L30.7368 17.5495L40.308 42.5246H41.1346Z" fill="url(#paint49_linear_406_3467)"/>
<path d="M38.7853 16.506L30.7368 17.5494L44.2888 22.8531L38.7853 16.506Z" fill="url(#paint50_linear_406_3467)"/>
<path d="M42.4622 42.5245L51.0545 34.0038L44.2894 22.853L41.1353 42.5245H42.4622Z" fill="url(#paint51_linear_406_3467)"/>
<path d="M51.0541 34.0039L49.3574 12.7892L44.2891 22.8531L51.0541 34.0039Z" fill="url(#paint52_linear_406_3467)"/>
<path d="M49.3575 12.7892L38.7856 16.5061L44.2891 22.8531L49.3575 12.7892Z" fill="url(#paint53_linear_406_3467)"/>
</g>
<path d="M67.3493 19.8504C66.4357 21.285 65.3481 22.2197 63.5861 22.2197C60.3015 22.2197 59.2573 19.1766 59.2573 16.3943C59.2573 11.8732 61.6284 10.5255 63.4556 10.5255C65.2176 10.5255 66.2399 11.4384 67.0448 12.9383L65.7179 13.6121C65.2393 12.6991 64.5867 11.8949 63.4773 11.8949C61.2368 11.8949 60.78 14.6337 60.78 16.3726C60.78 18.1115 61.1933 20.8503 63.4773 20.8503C64.8043 20.8503 65.4786 20.046 66.1529 19.0244L67.3493 19.8504Z" fill="black"/>
<path fill-rule="evenodd" clip-rule="evenodd" d="M80.8583 16.3943C80.8583 17.2855 80.793 22.2197 76.8558 22.2197C75.0286 22.2197 72.8315 20.9155 72.8315 16.3943C72.8315 11.8732 74.9851 10.5255 76.8558 10.5255C78.6395 10.5255 80.8583 11.8297 80.8583 16.3943ZM74.3542 16.3943C74.3542 18.0246 74.6588 20.8503 76.8558 20.8503C79.0311 20.8503 79.3356 18.0246 79.3356 16.3943C79.3356 14.7206 79.0311 11.8949 76.8558 11.8949C74.6588 11.8949 74.3542 14.7206 74.3542 16.3943Z" fill="black"/>
<path fill-rule="evenodd" clip-rule="evenodd" d="M86.4692 10.7212H90.2542C93.4519 10.7212 94.9093 12.0471 94.9093 16.2422C94.9093 19.7635 94.3002 22.0241 90.2542 22.0241H86.4692V20.7199H87.6439V12.0254H86.4692V10.7212ZM89.1013 20.7199H90.6458C92.56 20.7199 93.3866 19.6331 93.3866 16.3727C93.3866 12.9166 92.4077 12.0254 90.6023 12.0254H89.1013V20.7199Z" fill="black"/>
<path d="M101.632 20.7199H103.22V12.0254H101.632V10.7212H106.287V12.0254H104.677V20.7199H106.287V22.0241H101.632V20.7199Z" fill="black"/>
<path d="M113.747 10.7212H115.553L119.925 20.2417L119.968 20.1983L119.838 17.2638V10.7212H121.295V22.0241H119.49L115.117 12.5036L115.074 12.547L115.204 15.5032V22.0241H113.747V10.7212Z" fill="black"/>
<path d="M134.891 20.9807C133.956 21.7198 132.564 22.2197 131.433 22.2197C128.105 22.2197 127.147 19.1331 127.147 16.3726C127.147 13.6338 128.148 10.5255 131.389 10.5255C132.89 10.5255 134.217 11.4167 135 12.6992L133.76 13.5034C133.216 12.5905 132.39 11.8949 131.302 11.8949C129.062 11.8949 128.67 14.6989 128.67 16.4161C128.67 18.155 129.062 20.8503 131.346 20.8503C132.064 20.8503 132.803 20.6547 133.434 20.2634V17.2855H130.737V16.0031H134.891V20.9807Z" fill="black"/>
<defs>
<linearGradient id="paint0_linear_406_3467" x1="18.3587" y1="35.3957" x2="31.7021" y2="53.1205" gradientUnits="userSpaceOnUse">
<stop stop-color="#E20463"/>
<stop offset="1" stop-color="#AC136F"/>
</linearGradient>
<linearGradient id="paint1_linear_406_3467" x1="1.653" y1="25.2231" x2="18.2119" y2="48.797" gradientUnits="userSpaceOnUse">
<stop stop-color="#E50871"/>
<stop offset="1" stop-color="#D8025E"/>
</linearGradient>
<linearGradient id="paint2_linear_406_3467" x1="6.24353" y1="29.3312" x2="23.2633" y2="46.0593" gradientUnits="userSpaceOnUse">
<stop stop-color="#D50164"/>
<stop offset="1" stop-color="#C7066E"/>
</linearGradient>
<linearGradient id="paint3_linear_406_3467" x1="-8.00549" y1="30.4398" x2="4.94833" y2="44.9042" gradientUnits="userSpaceOnUse">
<stop stop-color="#C50774"/>
<stop offset="1" stop-color="#CA0669"/>
</linearGradient>
<linearGradient id="paint4_linear_406_3467" x1="-4.72052" y1="29.6139" x2="5.92711" y2="45.88" gradientUnits="userSpaceOnUse">
<stop stop-color="#BD1542"/>
<stop offset="1" stop-color="#C7133C"/>
</linearGradient>
<linearGradient id="paint5_linear_406_3467" x1="1.97942" y1="27.5271" x2="14.4936" y2="54.2484" gradientUnits="userSpaceOnUse">
<stop stop-color="#CF0565"/>
<stop offset="1" stop-color="#CA1337"/>
</linearGradient>
<linearGradient id="paint6_linear_406_3467" x1="-14.2698" y1="20.202" x2="-3.70415" y2="28.6217" gradientUnits="userSpaceOnUse">
<stop stop-color="#E73373"/>
<stop offset="1" stop-color="#E5134E"/>
</linearGradient>
<linearGradient id="paint7_linear_406_3467" x1="-2.4797" y1="21.1367" x2="4.84459" y2="29.728" gradientUnits="userSpaceOnUse">
<stop stop-color="#C1171F"/>
<stop offset="1" stop-color="#D70F1B"/>
</linearGradient>
<linearGradient id="paint8_linear_406_3467" x1="-4.02415" y1="13.4855" x2="3.88433" y2="29.3144" gradientUnits="userSpaceOnUse">
<stop stop-color="#AB182B"/>
<stop offset="1" stop-color="#D31125"/>
</linearGradient>
<linearGradient id="paint9_linear_406_3467" x1="-6.52571" y1="-1.46921" x2="10.6022" y2="16.1066" gradientUnits="userSpaceOnUse">
<stop stop-color="#A83389"/>
<stop offset="1" stop-color="#8A3E8F"/>
</linearGradient>
<linearGradient id="paint10_linear_406_3467" x1="6.19947" y1="5.16038" x2="25.7229" y2="19.7378" gradientUnits="userSpaceOnUse">
<stop stop-color="#792D86"/>
<stop offset="1" stop-color="#7D358A"/>
</linearGradient>
<linearGradient id="paint11_linear_406_3467" x1="-13.9652" y1="-0.251871" x2="-1.25078" y2="14.4079" gradientUnits="userSpaceOnUse">
<stop stop-color="#F5B1A9"/>
<stop offset="1" stop-color="#E94D6B"/>
</linearGradient>
<linearGradient id="paint12_linear_406_3467" x1="-12.5736" y1="10.877" x2="-0.642199" y2="25.6231" gradientUnits="userSpaceOnUse">
<stop stop-color="#E6266C"/>
<stop offset="1" stop-color="#E1274C"/>
</linearGradient>
<linearGradient id="paint13_linear_406_3467" x1="-13.5525" y1="7.20358" x2="-0.0476764" y2="13.5149" gradientUnits="userSpaceOnUse">
<stop stop-color="#AF1061"/>
<stop offset="1" stop-color="#C9266D"/>
</linearGradient>
<linearGradient id="paint14_linear_406_3467" x1="-17.5325" y1="17.2242" x2="-1.69846" y2="21.904" gradientUnits="userSpaceOnUse">
<stop stop-color="#EA5C9C"/>
<stop offset="1" stop-color="#E73E7B"/>
</linearGradient>
<linearGradient id="paint15_linear_406_3467" x1="-20.0341" y1="8.20346" x2="-5.36277" y2="23.8864" gradientUnits="userSpaceOnUse">
<stop stop-color="#E74960"/>
<stop offset="1" stop-color="#E62E70"/>
</linearGradient>
<linearGradient id="paint16_linear_406_3467" x1="1.5879" y1="-5.09923" x2="22.2626" y2="11.4573" gradientUnits="userSpaceOnUse">
<stop stop-color="#9B1A80"/>
<stop offset="1" stop-color="#861E70"/>
</linearGradient>
<linearGradient id="paint17_linear_406_3467" x1="16.4884" y1="-1.59961" x2="26.9846" y2="12.993" gradientUnits="userSpaceOnUse">
<stop stop-color="#6B247F"/>
<stop offset="1" stop-color="#691E5D"/>
</linearGradient>
<linearGradient id="paint18_linear_406_3467" x1="-25.1245" y1="21.5495" x2="1.0263" y2="45.1965" gradientUnits="userSpaceOnUse">
<stop stop-color="#E94A92"/>
<stop offset="1" stop-color="#E73A8C"/>
</linearGradient>
<linearGradient id="paint19_linear_406_3467" x1="-27.2563" y1="25.397" x2="-4.69115" y2="44.52" gradientUnits="userSpaceOnUse">
<stop stop-color="#CD0665"/>
<stop offset="1" stop-color="#E62980"/>
</linearGradient>
<linearGradient id="paint20_linear_406_3467" x1="-19.1206" y1="-5.07742" x2="4.50576" y2="20.0458" gradientUnits="userSpaceOnUse">
<stop stop-color="#F4ADB9"/>
<stop offset="1" stop-color="#E55D99"/>
</linearGradient>
<linearGradient id="paint21_linear_406_3467" x1="-4.39394" y1="-11.8374" x2="13.6174" y2="24.1906" gradientUnits="userSpaceOnUse">
<stop stop-color="#B0368B"/>
<stop offset="1" stop-color="#B9408F"/>
</linearGradient>
<linearGradient id="paint22_linear_406_3467" x1="-3.74141" y1="10.0511" x2="8.9569" y2="17.9064" gradientUnits="userSpaceOnUse">
<stop stop-color="#A61640"/>
<stop offset="1" stop-color="#B31981"/>
</linearGradient>
<linearGradient id="paint23_linear_406_3467" x1="-2.67553" y1="16.5721" x2="14.7559" y2="35.6697" gradientUnits="userSpaceOnUse">
<stop stop-color="#B7172E"/>
<stop offset="1" stop-color="#CB1143"/>
</linearGradient>
<linearGradient id="paint24_linear_406_3467" x1="-0.478458" y1="10.7032" x2="11.328" y2="18.3842" gradientUnits="userSpaceOnUse">
<stop stop-color="#AD2183"/>
<stop offset="1" stop-color="#9E3E8E"/>
</linearGradient>
<linearGradient id="paint25_linear_406_3467" x1="-7.11321" y1="8.33385" x2="14.2749" y2="30.4558" gradientUnits="userSpaceOnUse">
<stop stop-color="#C9142B"/>
<stop offset="1" stop-color="#AC136F"/>
</linearGradient>
<linearGradient id="paint26_linear_406_3467" x1="-7.96183" y1="9.96406" x2="45.7918" y2="39.8641" gradientUnits="userSpaceOnUse">
<stop stop-color="#9B3C8D"/>
<stop offset="1" stop-color="#9B1E81"/>
</linearGradient>
<linearGradient id="paint27_linear_406_3467" x1="-4.00283" y1="10.9858" x2="41.6956" y2="22.4135" gradientUnits="userSpaceOnUse">
<stop stop-color="#993D8E"/>
<stop offset="1" stop-color="#8D4291"/>
</linearGradient>
<linearGradient id="paint28_linear_406_3467" x1="0.65308" y1="15.5937" x2="25.7991" y2="45.0435" gradientUnits="userSpaceOnUse">
<stop stop-color="#841C66"/>
<stop offset="1" stop-color="#A22A85"/>
</linearGradient>
<linearGradient id="paint29_linear_406_3467" x1="-9.57112" y1="4.68214" x2="28.4266" y2="15.4784" gradientUnits="userSpaceOnUse">
<stop stop-color="#8B388C"/>
<stop offset="1" stop-color="#821F81"/>
</linearGradient>
<linearGradient id="paint30_linear_406_3467" x1="69.392" y1="5.61612" x2="45.1145" y2="-21.6377" gradientUnits="userSpaceOnUse">
<stop stop-color="#ED7515"/>
<stop offset="1" stop-color="#EF8014"/>
</linearGradient>
<linearGradient id="paint31_linear_406_3467" x1="64.7802" y1="38.8945" x2="8.6578" y2="-63.6498" gradientUnits="userSpaceOnUse">
<stop stop-color="#FABB47"/>
<stop offset="1" stop-color="#F7A914"/>
</linearGradient>
<linearGradient id="paint32_linear_406_3467" x1="42.6794" y1="41.9811" x2="23.3441" y2="-3.87129" gradientUnits="userSpaceOnUse">
<stop stop-color="#F18D0F"/>
<stop offset="1" stop-color="#EF800D"/>
</linearGradient>
<linearGradient id="paint33_linear_406_3467" x1="86.7288" y1="36.5688" x2="62.5929" y2="22.0982" gradientUnits="userSpaceOnUse">
<stop stop-color="#DF0814"/>
<stop offset="1" stop-color="#E00714"/>
</linearGradient>
<linearGradient id="paint34_linear_406_3467" x1="45.2241" y1="5.02925" x2="28.9734" y2="-30.9102" gradientUnits="userSpaceOnUse">
<stop stop-color="#F9B737"/>
<stop offset="1" stop-color="#F59E11"/>
</linearGradient>
<linearGradient id="paint35_linear_406_3467" x1="59.5594" y1="5.57266" x2="44.9346" y2="-15.3263" gradientUnits="userSpaceOnUse">
<stop stop-color="#EE7C15"/>
<stop offset="1" stop-color="#F3981D"/>
</linearGradient>
<linearGradient id="paint36_linear_406_3467" x1="56.1231" y1="1.11669" x2="50.9097" y2="-16.4267" gradientUnits="userSpaceOnUse">
<stop stop-color="#ED7013"/>
<stop offset="1" stop-color="#EE7C12"/>
</linearGradient>
<linearGradient id="paint37_linear_406_3467" x1="71.1754" y1="20.0056" x2="48.8592" y2="-14.9183" gradientUnits="userSpaceOnUse">
<stop stop-color="#E95811"/>
<stop offset="1" stop-color="#EA5D12"/>
</linearGradient>
<linearGradient id="paint38_linear_406_3467" x1="65.3672" y1="3.9859" x2="46.8253" y2="-13.5258" gradientUnits="userSpaceOnUse">
<stop stop-color="#EE7816"/>
<stop offset="1" stop-color="#F08413"/>
</linearGradient>
<linearGradient id="paint39_linear_406_3467" x1="73.3942" y1="12.1153" x2="46.1358" y2="-13.9671" gradientUnits="userSpaceOnUse">
<stop stop-color="#E84F0E"/>
<stop offset="1" stop-color="#E74E0F"/>
</linearGradient>
<linearGradient id="paint40_linear_406_3467" x1="76.0263" y1="38.3294" x2="53.171" y2="-12.4162" gradientUnits="userSpaceOnUse">
<stop stop-color="#E42D12"/>
<stop offset="1" stop-color="#E85011"/>
</linearGradient>
<linearGradient id="paint41_linear_406_3467" x1="127.058" y1="64.1958" x2="21.8374" y2="1.96057" gradientUnits="userSpaceOnUse">
<stop stop-color="#E00714"/>
<stop offset="1" stop-color="#E00714"/>
</linearGradient>
<linearGradient id="paint42_linear_406_3467" x1="79.05" y1="21.7011" x2="65.9063" y2="-8.82397" gradientUnits="userSpaceOnUse">
<stop stop-color="#E20A13"/>
<stop offset="1" stop-color="#E31913"/>
</linearGradient>
<linearGradient id="paint43_linear_406_3467" x1="67.521" y1="18.8101" x2="49.0772" y2="-29.8451" gradientUnits="userSpaceOnUse">
<stop stop-color="#E32313"/>
<stop offset="1" stop-color="#E00714"/>
</linearGradient>
<linearGradient id="paint44_linear_406_3467" x1="53.9256" y1="21.6576" x2="32.5671" y2="-16.46" gradientUnits="userSpaceOnUse">
<stop stop-color="#FABE4C"/>
<stop offset="1" stop-color="#FBC349"/>
</linearGradient>
<linearGradient id="paint45_linear_406_3467" x1="77.8101" y1="11.3328" x2="64.1671" y2="-23.0395" gradientUnits="userSpaceOnUse">
<stop stop-color="#E31B13"/>
<stop offset="1" stop-color="#E53912"/>
</linearGradient>
<linearGradient id="paint46_linear_406_3467" x1="77.2879" y1="1.37753" x2="47.4751" y2="-14.6826" gradientUnits="userSpaceOnUse">
<stop stop-color="#E95911"/>
<stop offset="1" stop-color="#E85011"/>
</linearGradient>
<linearGradient id="paint47_linear_406_3467" x1="85.0754" y1="7.57239" x2="59.1786" y2="-8.39949" gradientUnits="userSpaceOnUse">
<stop stop-color="#E74810"/>
<stop offset="1" stop-color="#E74D10"/>
</linearGradient>
<linearGradient id="paint48_linear_406_3467" x1="58.8634" y1="23.3749" x2="36.1514" y2="-3.05172" gradientUnits="userSpaceOnUse">
<stop stop-color="#EF800F"/>
<stop offset="1" stop-color="#E64510"/>
</linearGradient>
<linearGradient id="paint49_linear_406_3467" x1="56.1875" y1="31.9607" x2="38.869" y2="4.88711" gradientUnits="userSpaceOnUse">
<stop stop-color="#E42B12"/>
<stop offset="1" stop-color="#EB640A"/>
</linearGradient>
<linearGradient id="paint50_linear_406_3467" x1="54.7083" y1="18.9405" x2="38.0706" y2="12.7157" gradientUnits="userSpaceOnUse">
<stop stop-color="#EF820E"/>
<stop offset="1" stop-color="#EE7710"/>
</linearGradient>
<linearGradient id="paint51_linear_406_3467" x1="62.3224" y1="38.1554" x2="44.1137" y2="7.79939" gradientUnits="userSpaceOnUse">
<stop stop-color="#E21B13"/>
<stop offset="1" stop-color="#E42D12"/>
</linearGradient>
<linearGradient id="paint52_linear_406_3467" x1="56.2748" y1="20.9621" x2="46.2815" y2="-4.03995" gradientUnits="userSpaceOnUse">
<stop stop-color="#E42D12"/>
<stop offset="1" stop-color="#E9560D"/>
</linearGradient>
<linearGradient id="paint53_linear_406_3467" x1="62.4961" y1="20.4404" x2="41.7989" y2="4.71001" gradientUnits="userSpaceOnUse">
<stop stop-color="#EB6413"/>
<stop offset="1" stop-color="#EB6910"/>
</linearGradient>
</defs>
</svg>
