<svg width="128" height="32" viewBox="0 0 128 32" fill="none" xmlns="http://www.w3.org/2000/svg">
<mask id="mask0_184_16182" style="mask-type:luminance" maskUnits="userSpaceOnUse" x="0" y="0" width="27" height="32">
<path d="M19.3951 0.092041V16.2636L0 0.506237V31.2987H6.89923V15.1631L26.3363 31.1546V0.092041H19.3951Z" fill="white"/>
</mask>
<g mask="url(#mask0_184_16182)">
<path d="M26.2727 -19.9211V42.0879H-35.7363V-19.9211H26.2727Z" fill="white"/>
<path d="M26.272 30.5225L21.4497 32.8636L26.272 37.7458V30.5225Z" fill="url(#paint0_linear_184_16182)"/>
<path d="M10.0645 35.1648L21.4498 32.8637L14.1264 18.7771L10.0645 35.1648Z" fill="url(#paint1_linear_184_16182)"/>
<path d="M26.2726 28.0014L14.127 18.7771L21.4504 32.8637L26.2726 30.5226V28.0014Z" fill="url(#paint2_linear_184_16182)"/>
<path d="M-0.800781 34.1442L10.0643 35.1647L0.960045 22.8789L-0.800781 34.1442Z" fill="url(#paint3_linear_184_16182)"/>
<path d="M0.960449 22.879L10.0647 35.1647L6.52306 21.0781L0.960449 22.879Z" fill="url(#paint4_linear_184_16182)"/>
<path d="M10.0646 35.1648L14.1265 18.7771L6.52295 21.0782L10.0646 35.1648Z" fill="url(#paint5_linear_184_16182)"/>
<path d="M-7.64355 17.4965L0.960478 22.8791L0.720365 15.9558L-7.64355 17.4965Z" fill="url(#paint6_linear_184_16182)"/>
<path d="M0.960328 22.8791L6.52293 21.0782L0.720215 15.9558L0.960328 22.8791Z" fill="url(#paint7_linear_184_16182)"/>
<path d="M2.98128 9.29272L6.52293 21.0782L0.720215 15.9558L2.98128 9.29272Z" fill="url(#paint8_linear_184_16182)"/>
<path d="M4.76221 6.47133L13.3662 -0.952148L14.887 9.55278L4.76221 6.47133Z" fill="url(#paint9_linear_184_16182)"/>
<path d="M26.2723 4.2703L13.3662 -0.952148L14.8869 9.55278L26.2723 5.07068V4.2703Z" fill="url(#paint10_linear_184_16182)"/>
<path d="M-6.8833 -7.11499L4.76216 6.47138L-6.62318 3.91018L-6.8833 -7.11499Z" fill="url(#paint11_linear_184_16182)"/>
<path d="M0.719906 15.9558L2.98097 9.29268L-6.62354 3.91016L0.719906 15.9558Z" fill="url(#paint12_linear_184_16182)"/>
<path d="M2.98097 9.29268L4.7618 6.47135L-6.62354 3.91016L2.98097 9.29268Z" fill="url(#paint13_linear_184_16182)"/>
<path d="M-7.6435 17.4966L0.720419 15.9559L-10.4248 14.155L-7.6435 17.4966Z" fill="url(#paint14_linear_184_16182)"/>
<path d="M-6.62302 3.91016L0.720419 15.9558L-10.4248 14.155L-6.62302 3.91016Z" fill="url(#paint15_linear_184_16182)"/>
<path d="M26.2723 2.96951L20.6896 -6.59497L13.3662 -0.95233L26.2723 4.27012V2.96951Z" fill="url(#paint16_linear_184_16182)"/>
<path d="M26.2721 -7.53516L20.6895 -6.59471L26.2721 2.96977V-7.53516Z" fill="url(#paint17_linear_184_16182)"/>
<path d="M-7.64391 17.4963L0.960126 22.8789L-12.186 29.542L-7.64391 17.4963Z" fill="url(#paint18_linear_184_16182)"/>
<path d="M-0.800699 34.1442L0.960126 22.8789L-12.186 29.542L-0.800699 34.1442Z" fill="url(#paint19_linear_184_16182)"/>
<path d="M-6.8833 -7.11523L4.76216 6.47114L9.30429 -10.957L-6.8833 -7.11523Z" fill="url(#paint20_linear_184_16182)"/>
<path d="M4.76221 6.47114L13.3662 -0.952342L9.30434 -10.957L4.76221 6.47114Z" fill="url(#paint21_linear_184_16182)"/>
<path d="M2.98145 9.29252L4.76228 6.47119L13.6064 13.1343L2.98145 9.29252Z" fill="url(#paint22_linear_184_16182)"/>
<path d="M2.98145 9.29272L6.5231 21.0782L13.6064 13.1345L2.98145 9.29272Z" fill="url(#paint23_linear_184_16182)"/>
<path d="M4.76221 6.47119L14.887 9.55263L13.6064 13.1343L4.76221 6.47119Z" fill="url(#paint24_linear_184_16182)"/>
<path d="M6.52295 21.078L14.1265 18.7769L13.6063 13.1343L6.52295 21.078Z" fill="url(#paint25_linear_184_16182)"/>
<path d="M26.2719 9.93286L13.606 13.1344L14.1262 18.777L26.2719 11.7337V9.93286Z" fill="url(#paint26_linear_184_16182)"/>
<path d="M26.2719 8.85254L14.8866 9.55287L13.606 13.1345L26.2719 9.93304V8.85254Z" fill="url(#paint27_linear_184_16182)"/>
<path d="M26.2726 11.7336L14.127 18.7769L26.2726 28.0013V11.7336Z" fill="url(#paint28_linear_184_16182)"/>
<path d="M26.2725 5.07056L14.8872 9.55266L26.2725 8.85233V5.07056Z" fill="url(#paint29_linear_184_16182)"/>
</g>
<mask id="mask1_184_16182" style="mask-type:luminance" maskUnits="userSpaceOnUse" x="25" y="0" width="34" height="32">
<path d="M50.2987 0L33.2767 16.7218L33.4668 0H25.9673V31.1986L58.6386 0H50.2987Z" fill="white"/>
</mask>
<g mask="url(#mask1_184_16182)">
<path d="M50.4043 -4.09448L51.6249 1.02791L58.0279 -4.09448H50.4043Z" fill="url(#paint30_linear_184_16182)"/>
<path d="M34.3767 -4.09448L26.1729 13.3937V15.0345L28.2738 16.155L34.4367 -4.09448H34.3767Z" fill="url(#paint31_linear_184_16182)"/>
<path d="M26.1729 15.0344V22.0377L28.2738 16.155L26.1729 15.0344Z" fill="url(#paint32_linear_184_16182)"/>
<path d="M69.273 39.1459L64.0706 29.3413L55.9067 35.6843L67.9524 39.1459H69.273Z" fill="url(#paint33_linear_184_16182)"/>
<path d="M34.4363 -4.09448L28.2734 16.155L35.6769 15.1946L34.5164 -4.09448H34.4363Z" fill="url(#paint34_linear_184_16182)"/>
<path d="M34.5166 -4.09448L35.6771 15.1946L45.4017 11.773L34.6767 -4.09448H34.5166Z" fill="url(#paint35_linear_184_16182)"/>
<path d="M47.9434 -4.09448L48.1234 -0.432769L51.6251 1.02791L50.4045 -4.09448H47.9434Z" fill="url(#paint36_linear_184_16182)"/>
<path d="M51.6248 1.02782L45.4019 11.7729L48.1231 -0.432861L51.6248 1.02782Z" fill="url(#paint37_linear_184_16182)"/>
<path d="M34.6768 -4.09448L45.4018 11.773L48.1231 -0.432769L35.3971 -4.09448H34.6768Z" fill="url(#paint38_linear_184_16182)"/>
<path d="M51.6248 1.02783L45.4019 11.7729L54.3461 6.39035L51.6248 1.02783Z" fill="url(#paint39_linear_184_16182)"/>
<path d="M46.9626 31.3021L45.4019 11.7729L54.3461 6.39038L46.9626 31.3021Z" fill="url(#paint40_linear_184_16182)"/>
<path d="M64.0704 29.3413L55.9065 35.6843L55.5063 34.7238L64.0704 29.3413Z" fill="url(#paint41_linear_184_16182)"/>
<path d="M64.0707 29.3411L54.3462 6.39038L55.5067 34.7237L64.0707 29.3411Z" fill="url(#paint42_linear_184_16182)"/>
<path d="M54.3459 6.39038L46.9624 31.3021L55.5064 34.7237L54.3459 6.39038Z" fill="url(#paint43_linear_184_16182)"/>
<path d="M26.1729 -4.09448V13.3937L34.3767 -4.09448H26.1729Z" fill="url(#paint44_linear_184_16182)"/>
<path d="M64.0707 29.3411L54.3462 6.39033L61.7297 -1.41333L64.0707 29.3411Z" fill="url(#paint45_linear_184_16182)"/>
<path d="M58.0275 -4.09448L51.6245 1.02791L61.7292 -1.41323L60.7888 -4.09448H58.0275Z" fill="url(#paint46_linear_184_16182)"/>
<path d="M54.3458 6.39033L51.6245 1.02781L61.7292 -1.41333L54.3458 6.39033Z" fill="url(#paint47_linear_184_16182)"/>
<path d="M37.078 39.1458L28.2738 16.155L26.1729 22.0378V37.9052L31.5154 39.1458H37.078Z" fill="url(#paint48_linear_184_16182)"/>
<path d="M37.8379 39.1458L40.7393 21.0373L28.2734 16.155L37.0776 39.1458H37.8379Z" fill="url(#paint49_linear_184_16182)"/>
<path d="M35.6769 15.1943L28.2734 16.1548L40.7393 21.0371L35.6769 15.1943Z" fill="url(#paint50_linear_184_16182)"/>
<path d="M39.0589 39.1456L46.9627 31.3019L40.7397 21.0371L37.8384 39.1456H39.0589Z" fill="url(#paint51_linear_184_16182)"/>
<path d="M46.9627 31.3021L45.4019 11.7729L40.7397 21.0373L46.9627 31.3021Z" fill="url(#paint52_linear_184_16182)"/>
<path d="M45.4018 11.7729L35.6772 15.1946L40.7396 21.0373L45.4018 11.7729Z" fill="url(#paint53_linear_184_16182)"/>
</g>
<path d="M65.631 11.2735C64.7906 12.5941 63.7901 13.4545 62.1694 13.4545C59.1479 13.4545 58.1875 10.6532 58.1875 8.09199C58.1875 3.93003 60.3685 2.68945 62.0493 2.68945C63.6701 2.68945 64.6105 3.52985 65.3509 4.9105L64.1303 5.53078C63.6901 4.69039 63.0898 3.95004 62.0693 3.95004C60.0084 3.95004 59.5882 6.47122 59.5882 8.07197C59.5882 9.67273 59.9683 12.1939 62.0693 12.1939C63.2899 12.1939 63.9102 11.4536 64.5305 10.5131L65.631 11.2735Z" fill="black"/>
<path fill-rule="evenodd" clip-rule="evenodd" d="M78.0568 8.09199C78.0568 8.91237 77.9968 13.4545 74.3751 13.4545C72.6943 13.4545 70.6733 12.2539 70.6733 8.09199C70.6733 3.93003 72.6543 2.68945 74.3751 2.68945C76.0158 2.68945 78.0568 3.89002 78.0568 8.09199ZM72.074 8.09199C72.074 9.59269 72.3541 12.1939 74.3751 12.1939C76.376 12.1939 76.6561 9.59269 76.6561 8.09199C76.6561 6.55126 76.376 3.95004 74.3751 3.95004C72.3541 3.95004 72.074 6.55126 72.074 8.09199Z" fill="black"/>
<path fill-rule="evenodd" clip-rule="evenodd" d="M83.2192 2.86938H86.7009C89.6423 2.86938 90.9829 4.08996 90.9829 7.95177C90.9829 11.1933 90.4226 13.2743 86.7009 13.2743H83.2192V12.0737H84.2997V4.06995H83.2192V2.86938ZM85.6404 12.0737H87.061C88.8219 12.0737 89.5822 11.0732 89.5822 8.07182C89.5822 4.89033 88.6818 4.06995 87.021 4.06995H85.6404V12.0737Z" fill="black"/>
<path d="M97.1655 12.0737H98.6262V4.06995H97.1655V2.86938H101.448V4.06995H99.9668V12.0737H101.448V13.2743H97.1655V12.0737Z" fill="black"/>
<path d="M108.311 2.86938H109.971L113.993 11.6335L114.033 11.5935L113.913 8.89221V2.86938H115.254V13.2743H113.593L109.571 4.51016L109.531 4.55017L109.651 7.27145V13.2743H108.311V2.86938Z" fill="black"/>
<path d="M127.76 12.314C126.9 12.9943 125.619 13.4545 124.579 13.4545C121.517 13.4545 120.637 10.6132 120.637 8.07197C120.637 5.55079 121.557 2.68945 124.539 2.68945C125.919 2.68945 127.14 3.50984 127.86 4.69039L126.72 5.43073C126.219 4.59034 125.459 3.95004 124.459 3.95004C122.398 3.95004 122.037 6.53126 122.037 8.112C122.037 9.71275 122.398 12.1939 124.499 12.1939C125.159 12.1939 125.839 12.0138 126.419 11.6537V8.91237H123.938V7.73181H127.76V12.314Z" fill="black"/>
<path d="M127.58 18.3365H49.8836C49.6435 18.3365 49.4634 18.1765 49.4634 17.9764C49.4634 17.7763 49.6435 17.5962 49.8836 17.5962H127.58C127.82 17.5962 128 17.7763 128 17.9764C128 18.1765 127.82 18.3365 127.58 18.3365Z" fill="#51328A"/>
<defs>
<linearGradient id="paint0_linear_184_16182" x1="16.8876" y1="32.5834" x2="29.1733" y2="48.8911" gradientUnits="userSpaceOnUse">
<stop stop-color="#E20463"/>
<stop offset="1" stop-color="#AC136F"/>
</linearGradient>
<linearGradient id="paint1_linear_184_16182" x1="1.52045" y1="23.2192" x2="16.7676" y2="44.9094" gradientUnits="userSpaceOnUse">
<stop stop-color="#E50871"/>
<stop offset="1" stop-color="#D8025E"/>
</linearGradient>
<linearGradient id="paint2_linear_184_16182" x1="5.74302" y1="27.001" x2="21.4104" y2="42.3882" gradientUnits="userSpaceOnUse">
<stop stop-color="#D50164"/>
<stop offset="1" stop-color="#C7066E"/>
</linearGradient>
<linearGradient id="paint3_linear_184_16182" x1="-7.36386" y1="28.0213" x2="4.56173" y2="41.3276" gradientUnits="userSpaceOnUse">
<stop stop-color="#C50774"/>
<stop offset="1" stop-color="#CA0669"/>
</linearGradient>
<linearGradient id="paint4_linear_184_16182" x1="-4.34203" y1="27.261" x2="5.46256" y2="42.228" gradientUnits="userSpaceOnUse">
<stop stop-color="#BD1542"/>
<stop offset="1" stop-color="#C7133C"/>
</linearGradient>
<linearGradient id="paint5_linear_184_16182" x1="1.82075" y1="25.3402" x2="13.3461" y2="49.9317" gradientUnits="userSpaceOnUse">
<stop stop-color="#CF0565"/>
<stop offset="1" stop-color="#CA1337"/>
</linearGradient>
<linearGradient id="paint6_linear_184_16182" x1="-13.1261" y1="18.597" x2="-3.40156" y2="26.3407" gradientUnits="userSpaceOnUse">
<stop stop-color="#E73373"/>
<stop offset="1" stop-color="#E5134E"/>
</linearGradient>
<linearGradient id="paint7_linear_184_16182" x1="-2.28119" y1="19.4575" x2="4.46197" y2="27.3612" gradientUnits="userSpaceOnUse">
<stop stop-color="#C1171F"/>
<stop offset="1" stop-color="#D70F1B"/>
</linearGradient>
<linearGradient id="paint8_linear_184_16182" x1="-3.70186" y1="12.4142" x2="3.58155" y2="26.981" gradientUnits="userSpaceOnUse">
<stop stop-color="#AB182B"/>
<stop offset="1" stop-color="#D31125"/>
</linearGradient>
<linearGradient id="paint9_linear_184_16182" x1="-6.00284" y1="-1.35234" x2="9.76455" y2="14.8152" gradientUnits="userSpaceOnUse">
<stop stop-color="#A83389"/>
<stop offset="1" stop-color="#8A3E8F"/>
</linearGradient>
<linearGradient id="paint10_linear_184_16182" x1="5.70262" y1="4.75052" x2="23.671" y2="18.1568" gradientUnits="userSpaceOnUse">
<stop stop-color="#792D86"/>
<stop offset="1" stop-color="#7D358A"/>
</linearGradient>
<linearGradient id="paint11_linear_184_16182" x1="-12.8461" y1="-0.231765" x2="-1.14061" y2="13.2546" gradientUnits="userSpaceOnUse">
<stop stop-color="#F5B1A9"/>
<stop offset="1" stop-color="#E94D6B"/>
</linearGradient>
<linearGradient id="paint12_linear_184_16182" x1="-11.5659" y1="10.013" x2="-0.580707" y2="23.5794" gradientUnits="userSpaceOnUse">
<stop stop-color="#E6266C"/>
<stop offset="1" stop-color="#E1274C"/>
</linearGradient>
<linearGradient id="paint13_linear_184_16182" x1="-12.4663" y1="6.63143" x2="-0.0404505" y2="12.4342" gradientUnits="userSpaceOnUse">
<stop stop-color="#AF1061"/>
<stop offset="1" stop-color="#C9266D"/>
</linearGradient>
<linearGradient id="paint14_linear_184_16182" x1="-16.1275" y1="15.8558" x2="-1.56065" y2="20.1578" gradientUnits="userSpaceOnUse">
<stop stop-color="#EA5C9C"/>
<stop offset="1" stop-color="#E73E7B"/>
</linearGradient>
<linearGradient id="paint15_linear_184_16182" x1="-18.4286" y1="7.55186" x2="-4.92223" y2="21.9786" gradientUnits="userSpaceOnUse">
<stop stop-color="#E74960"/>
<stop offset="1" stop-color="#E62E70"/>
</linearGradient>
<linearGradient id="paint16_linear_184_16182" x1="1.46063" y1="-4.69408" x2="20.4895" y2="10.5331" gradientUnits="userSpaceOnUse">
<stop stop-color="#9B1A80"/>
<stop offset="1" stop-color="#861E70"/>
</linearGradient>
<linearGradient id="paint17_linear_184_16182" x1="15.1669" y1="-1.47231" x2="24.8314" y2="11.954" gradientUnits="userSpaceOnUse">
<stop stop-color="#6B247F"/>
<stop offset="1" stop-color="#691E5D"/>
</linearGradient>
<linearGradient id="paint18_linear_184_16182" x1="-23.1112" y1="19.8374" x2="0.960119" y2="41.5876" gradientUnits="userSpaceOnUse">
<stop stop-color="#E94A92"/>
<stop offset="1" stop-color="#E73A8C"/>
</linearGradient>
<linearGradient id="paint19_linear_184_16182" x1="-25.0721" y1="23.3791" x2="-4.30234" y2="40.9674" gradientUnits="userSpaceOnUse">
<stop stop-color="#CD0665"/>
<stop offset="1" stop-color="#E62980"/>
</linearGradient>
<linearGradient id="paint20_linear_184_16182" x1="-17.5883" y1="-4.67409" x2="4.16188" y2="18.4367" gradientUnits="userSpaceOnUse">
<stop stop-color="#F4ADB9"/>
<stop offset="1" stop-color="#E55D99"/>
</linearGradient>
<linearGradient id="paint21_linear_184_16182" x1="-4.04192" y1="-10.897" x2="12.5459" y2="22.2585" gradientUnits="userSpaceOnUse">
<stop stop-color="#B0368B"/>
<stop offset="1" stop-color="#B9408F"/>
</linearGradient>
<linearGradient id="paint22_linear_184_16182" x1="-3.44157" y1="9.25249" x2="8.24391" y2="16.4759" gradientUnits="userSpaceOnUse">
<stop stop-color="#A61640"/>
<stop offset="1" stop-color="#B31981"/>
</linearGradient>
<linearGradient id="paint23_linear_184_16182" x1="-2.46111" y1="15.2555" x2="13.5864" y2="32.8238" gradientUnits="userSpaceOnUse">
<stop stop-color="#B7172E"/>
<stop offset="1" stop-color="#CB1143"/>
</linearGradient>
<linearGradient id="paint24_linear_184_16182" x1="-0.440231" y1="9.85278" x2="10.4249" y2="16.9161" gradientUnits="userSpaceOnUse">
<stop stop-color="#AD2183"/>
<stop offset="1" stop-color="#9E3E8E"/>
</linearGradient>
<linearGradient id="paint25_linear_184_16182" x1="-6.54317" y1="7.67172" x2="13.1461" y2="28.0213" gradientUnits="userSpaceOnUse">
<stop stop-color="#C9142B"/>
<stop offset="1" stop-color="#AC136F"/>
</linearGradient>
<linearGradient id="paint26_linear_184_16182" x1="-7.32385" y1="9.1725" x2="42.1393" y2="36.6654" gradientUnits="userSpaceOnUse">
<stop stop-color="#9B3C8D"/>
<stop offset="1" stop-color="#9B1E81"/>
</linearGradient>
<linearGradient id="paint27_linear_184_16182" x1="-3.68214" y1="10.1131" x2="38.3576" y2="20.6181" gradientUnits="userSpaceOnUse">
<stop stop-color="#993D8E"/>
<stop offset="1" stop-color="#8D4291"/>
</linearGradient>
<linearGradient id="paint28_linear_184_16182" x1="0.600614" y1="14.3549" x2="23.7515" y2="41.4476" gradientUnits="userSpaceOnUse">
<stop stop-color="#841C66"/>
<stop offset="1" stop-color="#A22A85"/>
</linearGradient>
<linearGradient id="paint29_linear_184_16182" x1="-8.80389" y1="4.3102" x2="26.1525" y2="14.2349" gradientUnits="userSpaceOnUse">
<stop stop-color="#8B388C"/>
<stop offset="1" stop-color="#821F81"/>
</linearGradient>
<linearGradient id="paint30_linear_184_16182" x1="63.8306" y1="5.16985" x2="41.4801" y2="-19.9019" gradientUnits="userSpaceOnUse">
<stop stop-color="#ED7515"/>
<stop offset="1" stop-color="#EF8014"/>
</linearGradient>
<linearGradient id="paint31_linear_184_16182" x1="59.5885" y1="35.8042" x2="7.90431" y2="-58.56" gradientUnits="userSpaceOnUse">
<stop stop-color="#FABB47"/>
<stop offset="1" stop-color="#F7A914"/>
</linearGradient>
<linearGradient id="paint32_linear_184_16182" x1="39.259" y1="38.6455" x2="21.4506" y2="-3.55429" gradientUnits="userSpaceOnUse">
<stop stop-color="#F18D0F"/>
<stop offset="1" stop-color="#EF800D"/>
</linearGradient>
<linearGradient id="paint33_linear_184_16182" x1="79.7779" y1="33.6633" x2="57.5675" y2="20.3571" gradientUnits="userSpaceOnUse">
<stop stop-color="#DF0814"/>
<stop offset="1" stop-color="#E00714"/>
</linearGradient>
<linearGradient id="paint34_linear_184_16182" x1="41.5997" y1="4.6296" x2="26.6327" y2="-28.4459" gradientUnits="userSpaceOnUse">
<stop stop-color="#F9B737"/>
<stop offset="1" stop-color="#F59E11"/>
</linearGradient>
<linearGradient id="paint35_linear_184_16182" x1="54.7861" y1="5.12984" x2="41.3198" y2="-14.0992" gradientUnits="userSpaceOnUse">
<stop stop-color="#EE7C15"/>
<stop offset="1" stop-color="#F3981D"/>
</linearGradient>
<linearGradient id="paint36_linear_184_16182" x1="51.6251" y1="1.02791" x2="46.8228" y2="-15.1196" gradientUnits="userSpaceOnUse">
<stop stop-color="#ED7013"/>
<stop offset="1" stop-color="#EE7C12"/>
</linearGradient>
<linearGradient id="paint37_linear_184_16182" x1="65.4713" y1="18.416" x2="44.9216" y2="-13.7191" gradientUnits="userSpaceOnUse">
<stop stop-color="#E95811"/>
<stop offset="1" stop-color="#EA5D12"/>
</linearGradient>
<linearGradient id="paint38_linear_184_16182" x1="60.1287" y1="3.66916" x2="43.0607" y2="-12.4384" gradientUnits="userSpaceOnUse">
<stop stop-color="#EE7816"/>
<stop offset="1" stop-color="#F08413"/>
</linearGradient>
<linearGradient id="paint39_linear_184_16182" x1="67.5122" y1="11.1526" x2="42.4205" y2="-12.8387" gradientUnits="userSpaceOnUse">
<stop stop-color="#E84F0E"/>
<stop offset="1" stop-color="#E74E0F"/>
</linearGradient>
<linearGradient id="paint40_linear_184_16182" x1="69.9334" y1="35.2839" x2="48.8835" y2="-11.418" gradientUnits="userSpaceOnUse">
<stop stop-color="#E42D12"/>
<stop offset="1" stop-color="#E85011"/>
</linearGradient>
<linearGradient id="paint41_linear_184_16182" x1="116.875" y1="59.0953" x2="20.0497" y2="1.86848" gradientUnits="userSpaceOnUse">
<stop stop-color="#E00714"/>
<stop offset="1" stop-color="#E00714"/>
</linearGradient>
<linearGradient id="paint42_linear_184_16182" x1="72.7148" y1="19.9767" x2="60.6091" y2="-8.11642" gradientUnits="userSpaceOnUse">
<stop stop-color="#E20A13"/>
<stop offset="1" stop-color="#E31913"/>
</linearGradient>
<linearGradient id="paint43_linear_184_16182" x1="62.1095" y1="17.3155" x2="45.1215" y2="-27.4655" gradientUnits="userSpaceOnUse">
<stop stop-color="#E32313"/>
<stop offset="1" stop-color="#E00714"/>
</linearGradient>
<linearGradient id="paint44_linear_184_16182" x1="49.6038" y1="19.9368" x2="29.9346" y2="-15.1397" gradientUnits="userSpaceOnUse">
<stop stop-color="#FABE4C"/>
<stop offset="1" stop-color="#FBC349"/>
</linearGradient>
<linearGradient id="paint45_linear_184_16182" x1="71.5743" y1="10.4322" x2="59.0084" y2="-21.2026" gradientUnits="userSpaceOnUse">
<stop stop-color="#E31B13"/>
<stop offset="1" stop-color="#E53912"/>
</linearGradient>
<linearGradient id="paint46_linear_184_16182" x1="71.0936" y1="1.26803" x2="43.6608" y2="-13.4989" gradientUnits="userSpaceOnUse">
<stop stop-color="#E95911"/>
<stop offset="1" stop-color="#E85011"/>
</linearGradient>
<linearGradient id="paint47_linear_184_16182" x1="78.257" y1="6.9706" x2="54.4258" y2="-7.71628" gradientUnits="userSpaceOnUse">
<stop stop-color="#E74810"/>
<stop offset="1" stop-color="#E74D10"/>
</linearGradient>
<linearGradient id="paint48_linear_184_16182" x1="54.146" y1="21.5175" x2="33.2362" y2="-2.79385" gradientUnits="userSpaceOnUse">
<stop stop-color="#EF800F"/>
<stop offset="1" stop-color="#E64510"/>
</linearGradient>
<linearGradient id="paint49_linear_184_16182" x1="51.6844" y1="29.4212" x2="35.7369" y2="4.50957" gradientUnits="userSpaceOnUse">
<stop stop-color="#E42B12"/>
<stop offset="1" stop-color="#EB640A"/>
</linearGradient>
<linearGradient id="paint50_linear_184_16182" x1="50.3238" y1="17.4354" x2="35.0166" y2="11.7127" gradientUnits="userSpaceOnUse">
<stop stop-color="#EF820E"/>
<stop offset="1" stop-color="#EE7710"/>
</linearGradient>
<linearGradient id="paint51_linear_184_16182" x1="57.3275" y1="35.1237" x2="40.5596" y2="7.19063" gradientUnits="userSpaceOnUse">
<stop stop-color="#E21B13"/>
<stop offset="1" stop-color="#E42D12"/>
</linearGradient>
<linearGradient id="paint52_linear_184_16182" x1="51.7649" y1="19.2965" x2="42.5606" y2="-3.71431" gradientUnits="userSpaceOnUse">
<stop stop-color="#E42D12"/>
<stop offset="1" stop-color="#E9560D"/>
</linearGradient>
<linearGradient id="paint53_linear_184_16182" x1="57.4875" y1="18.8162" x2="38.4385" y2="4.34946" gradientUnits="userSpaceOnUse">
<stop stop-color="#EB6413"/>
<stop offset="1" stop-color="#EB6910"/>
</linearGradient>
</defs>
</svg>
