<svg width="72" height="72" viewBox="0 0 72 72" fill="none" xmlns="http://www.w3.org/2000/svg">
<path d="M60.9758 43.8228V60.5321C54.6198 66.9975 45.7718 71 35.9998 71C30.4278 71 25.1638 69.7124 20.4878 67.3894V41.0239H58.1478C59.7158 41.0239 60.9758 42.2834 60.9758 43.8228Z" stroke="black" stroke-width="2" stroke-miterlimit="10"/>
<path d="M60.9758 43.8228V60.5321C54.6198 66.9975 45.7718 71 35.9998 71C30.4278 71 25.1638 69.7124 20.4878 67.3894V41.0239H58.1478C59.7158 41.0239 60.9758 42.2834 60.9758 43.8228Z" stroke="black" stroke-width="2" stroke-miterlimit="10"/>
<path d="M54.9001 41.0239H20.4881H17.2121C15.6721 41.0239 14.4121 42.2834 14.4121 43.8228V63.5549" stroke="black" stroke-width="2" stroke-miterlimit="10"/>
<path d="M47.5082 20.9561C47.5082 27.3095 42.3562 36.042 36.0002 36.042C29.6442 36.042 24.4922 27.3095 24.4922 20.9561C24.4922 14.6026 29.6442 9.45264 36.0002 9.45264C42.3562 9.45264 47.5082 14.6026 47.5082 20.9561Z" stroke="black" stroke-width="2" stroke-miterlimit="10"/>
<path d="M53.7241 66.1859V51.016" stroke="black" stroke-width="2" stroke-miterlimit="10"/>
<path d="M27.6279 69.9924V51.016" stroke="black" stroke-width="2" stroke-miterlimit="10"/>
<path d="M66.716 52.7793C65.148 55.6341 63.216 58.2091 60.976 60.5042C54.62 66.9696 45.772 70.972 36 70.972C30.428 70.972 25.164 69.6845 20.488 67.3615C18.332 66.2979 16.288 65.0103 14.412 63.5269C6.236 57.1175 1 47.1535 1 35.986C1 16.6737 16.68 1 36 1C55.32 1 71 16.6737 71 35.986C71 38.7569 70.664 41.4438 70.076 44.0468" stroke="black" stroke-width="2" stroke-miterlimit="10"/>
</svg>
