<svg width="49" height="71" viewBox="0 0 49 71" fill="none" xmlns="http://www.w3.org/2000/svg">
<path d="M24.3366 48.436C16.158 48.436 9.56055 41.9236 9.56055 33.9104V15.5256C9.56055 7.48562 16.1852 1 24.3366 1C32.5153 1 39.1127 7.51242 39.1127 15.5256V33.9104C39.14 41.9236 32.5153 48.436 24.3366 48.436Z" stroke="black" stroke-width="2" stroke-miterlimit="10"/>
<path d="M9.42383 33.428H20.8194" stroke="black" stroke-width="2" stroke-miterlimit="10"/>
<path d="M9.42383 24.6912H20.8194" stroke="black" stroke-width="2" stroke-miterlimit="10"/>
<path d="M9.42383 15.9812H20.8194" stroke="black" stroke-width="2" stroke-miterlimit="10"/>
<path d="M27.7441 33.428H39.1397" stroke="black" stroke-width="2" stroke-miterlimit="10"/>
<path d="M27.7441 24.6912H39.1397" stroke="black" stroke-width="2" stroke-miterlimit="10"/>
<path d="M27.7441 15.9812H39.1397" stroke="black" stroke-width="2" stroke-miterlimit="10"/>
<path d="M41.2118 69.9564C42.7112 69.9564 43.938 68.7504 43.938 67.2764V66.4456C43.938 64.9716 42.7112 63.7656 41.2118 63.7656H12.9409V69.9564H34.4235" stroke="black" stroke-width="2" stroke-miterlimit="10"/>
<path d="M12.9679 63.7656H7.73354C6.23412 63.7656 5.00732 64.9716 5.00732 66.4456V67.2764C5.00732 68.7504 6.23412 69.9564 7.73354 69.9564H12.9679V63.7656Z" stroke="black" stroke-width="2" stroke-miterlimit="10"/>
<path d="M1 27.8C1 26.5404 2.03596 25.522 3.31728 25.522C4.5986 25.522 5.63457 26.5404 5.63457 27.8V33.9908C5.63457 44.2284 14.0858 52.5364 24.5 52.5364C34.9141 52.5364 43.3654 44.2284 43.3654 33.9908V27.8C43.3654 26.5404 44.4014 25.522 45.6827 25.522C46.964 25.522 48 26.5404 48 27.8V34.1248C48 46.8816 37.4768 57.1996 24.5273 57.1996C11.5505 57.1996 1.05451 46.8548 1.05451 34.1248" stroke="black" stroke-width="2" stroke-miterlimit="10"/>
<path d="M20.8193 60.4692H29.0798" stroke="black" stroke-width="2" stroke-miterlimit="10"/>
</svg>
