<svg width="145" height="121" viewBox="0 0 145 121" fill="none" xmlns="http://www.w3.org/2000/svg">
<path fill-rule="evenodd" clip-rule="evenodd" d="M106.719 0.101269C106.622 0.138209 106.531 0.191836 106.453 0.260951L93.3869 10.4617C93.0442 10.7322 92.9692 11.2839 93.2263 11.6367L96.6926 15.8563C94.4995 17.956 93.7546 18.5483 91.6794 20.076C86.997 23.5223 82.48 24.0217 78.0273 24.2419C73.5746 24.4624 69.1563 24.3682 65.1748 26.8588C63.2864 28.0385 60.7017 29.7867 57.922 31.7185L49.9219 21.5177L54.0819 17.8332C54.4234 17.5305 54.4496 16.937 54.1343 16.6046L42.0291 3.30683C41.8875 3.12689 41.6709 3.00892 41.4424 2.98627C41.2294 2.98151 41.0152 3.05896 40.8558 3.19958L0.273551 39.3009C-0.0679647 39.6035 -0.0941324 40.197 0.220004 40.5295L12.3252 53.8272C12.6251 54.1382 13.1724 54.1633 13.4985 53.8808L19.4186 48.5935C23.6179 52.2448 25.9942 55.0236 27.4187 57.4058C28.8811 59.8523 29.3809 61.8994 29.8188 64.2423C30.6946 68.9278 31.336 74.6682 38.9908 85.2847L60.9095 115.62C63.3965 119.068 67.9098 119.385 71.3618 117.649C73.2324 116.716 74.2379 114.856 74.4009 112.896C74.4199 112.668 74.4021 112.432 74.4009 112.201C77.0128 115.323 81.5322 116.185 84.6939 113.91C86.4741 112.629 87.4379 110.611 87.52 108.515L89.1728 110.598C91.8216 113.894 96.1862 114.296 99.6251 112.574C99.6632 112.557 99.6965 112.542 99.7311 112.521C102.989 110.177 103.468 105.438 100.904 102.054L96.2649 95.9658C98.3235 96.5056 100.544 96.2482 102.505 95.271C102.543 95.2544 102.576 95.2389 102.611 95.2186C105.871 92.8722 106.349 88.1189 103.784 84.7513L102.237 82.6682C108.19 78.7344 110.85 71.5764 113.436 64.9376C116.094 58.1155 118.673 51.9236 124.049 49.7701C124.087 49.7546 124.12 49.7368 124.155 49.7165L130.447 57.4599C130.733 57.7865 131.281 57.8365 131.62 57.566L144.686 47.3653C145.029 47.0948 145.104 46.543 144.847 46.1903L107.625 0.366606C107.46 0.193814 107.222 0.0937168 106.984 0.0996747C106.895 0.0865668 106.806 0.0865668 106.718 0.0996747L106.719 0.101269ZM106.825 2.13065L142.984 46.5663L131.251 55.6993L95.0921 11.2637L106.825 2.13065ZM41.3367 5.06808L52.3233 17.1382L13.0205 52.065L2.03512 39.9949L41.3367 5.06808ZM97.7594 17.1907L123.037 48.3256C117.077 50.9401 114.446 57.6001 111.839 64.2938C109.228 70.9934 106.605 77.8073 101.173 81.3311L88.3739 64.4549C88.2204 64.2631 87.98 64.1427 87.7337 64.1344C87.0864 64.1141 86.6354 65.0162 87.04 65.5226L102.452 85.7643C104.48 88.4264 104.097 92.0062 101.705 93.7758C98.8598 95.1629 95.535 94.8543 93.4383 92.2267C88.9225 86.5519 84.3602 80.8393 79.8395 75.137C79.2814 74.4375 77.9475 75.5064 78.5056 76.2047C83.2047 82.2679 88.1107 88.3072 92.2113 93.4015L99.571 103.122C101.6 105.802 101.166 109.309 98.7714 111.08C95.9441 112.466 92.6195 112.161 90.5048 109.531L86.7183 104.777C81.6359 98.3374 75.8992 91.2065 70.5588 84.5354C70.416 84.3233 70.1733 84.1815 69.9186 84.1612C69.232 84.0992 68.7489 85.1038 69.2249 85.6031L85.2238 105.63C86.4066 108.122 85.8355 111.004 83.7305 112.519C81.2923 114.274 77.5606 113.597 75.5175 110.916C70.2721 103.996 64.6688 96.6306 60.1052 90.6224C59.5745 89.8955 58.1882 90.9107 58.7189 91.6376C63.0017 97.1645 67.2853 102.846 71.4109 108.354C72.3509 109.677 72.8114 111.338 72.6912 112.787C72.5651 114.295 71.8963 115.512 70.6112 116.151C67.7494 117.592 64.2403 117.305 62.2922 114.602L40.3735 84.267C32.859 73.846 32.4164 68.7099 31.5205 63.9195C31.073 61.5243 30.5018 59.216 28.9073 56.5492C27.383 53.9978 24.8912 51.0973 20.748 47.4698L48.6392 22.6358L56.4784 32.6767C51.3403 36.2767 45.6011 40.4558 41.1734 43.6779C39.4361 44.9482 38.3104 46.489 37.8667 48.1108C37.424 49.7326 37.6894 51.432 38.6663 52.8106C40.4084 55.2678 43.1395 55.9756 45.9192 55.5872C48.6977 55.1999 51.6833 53.8211 54.558 52.2232C57.4329 50.624 60.1735 48.7482 62.4509 47.3102C63.5897 46.5916 64.619 46.0184 65.4376 45.6013C66.2563 45.1842 66.9263 45.0102 67.0905 45.0138C67.8651 45.0293 68.948 45.8289 70.8234 47.4174C72.6987 49.0047 75.3117 51.2356 79.3565 53.6129C82.5694 55.5077 86.5996 56.6111 90.3419 56.8173C94.0843 57.0235 97.6005 56.3395 99.7817 54.2541C100.159 53.9621 100.206 53.3318 99.8769 52.9874C99.5473 52.6418 98.9166 52.6621 98.6084 53.0255C96.9829 54.5806 93.9117 55.2992 90.449 55.1085C86.9863 54.9178 83.194 53.8466 80.2629 52.1175C76.3384 49.8116 73.8182 47.669 71.9439 46.083C70.0697 44.4969 68.8264 43.341 67.1436 43.3064H67.0912C66.288 43.2885 65.6014 43.59 64.6911 44.0536C63.7808 44.5171 62.6992 45.1404 61.545 45.8696C59.2365 47.3282 56.4961 49.1778 53.7057 50.7293C50.9141 52.282 48.1021 53.5464 45.7069 53.88C43.3116 54.2136 41.479 53.7323 40.1069 51.797C39.412 50.8175 39.2002 49.7116 39.5203 48.5389C39.8404 47.3662 40.6995 46.1556 42.187 45.0676C49.4897 39.754 60.6192 31.7067 66.0787 28.2973C69.5545 26.1225 73.5503 26.1714 78.0782 25.9474C82.6062 25.7234 87.6453 25.1752 92.6908 21.4608C94.7209 19.9677 95.6062 19.2396 97.7576 17.1887L97.7594 17.1907Z" fill="black"/>
<path fill-rule="evenodd" clip-rule="evenodd" d="M22.9359 70.4121C22.7728 70.4073 22.6122 70.449 22.4718 70.5336L21.8256 70.9078L21.8233 70.909C18.339 72.9181 17.3931 77.5631 19.6516 81.1405C19.6516 81.1417 19.6528 81.1405 19.6528 81.1405C20.9272 83.1735 22.9763 84.4892 25.148 84.88L20.5834 87.4743H20.5846C18.5379 88.6385 17.4254 90.42 17.1552 92.279C16.8862 94.138 17.4074 96.0472 18.4201 97.6546C19.4327 99.2609 20.9475 100.585 22.7692 101.231C24.5898 101.877 26.7281 101.802 28.7761 100.647L29.7554 100.096C29.0379 102.167 29.2687 104.603 30.5693 106.678H30.5717C32.816 110.229 37.4057 111.579 40.8839 109.652C40.1914 111.71 40.4293 114.117 41.7276 116.173C41.7276 116.174 41.7287 116.173 41.7287 116.173C43.973 119.751 48.616 121.115 52.104 119.104V119.106C52.104 119.104 52.1052 119.104 52.1052 119.104L52.7537 118.729V118.728C53.1618 118.492 53.3011 117.969 53.0643 117.561C52.8287 117.152 52.3063 117.013 51.8993 117.249L51.2532 117.624L51.2508 117.626C48.6329 119.133 44.9536 118.106 43.1712 115.263H43.17C41.372 112.417 42.13 108.932 44.7514 107.423V107.421C45.1501 107.183 45.2845 106.667 45.0525 106.263C44.8193 105.858 44.3064 105.716 43.8994 105.941C43.8971 105.943 43.8959 105.941 43.8935 105.941L40.1155 108.122H40.112C37.4929 109.614 33.8123 108.602 32.0144 105.76C32.0144 105.759 32.0132 105.76 32.0132 105.76C30.233 102.916 30.9732 99.4372 33.6042 97.925C33.6066 97.9238 33.6077 97.925 33.6101 97.925C34.0207 97.6927 34.1635 97.1719 33.9314 96.7608C33.6994 96.3508 33.1782 96.2067 32.7688 96.439H32.7629C32.7629 96.439 32.7617 96.4402 32.7605 96.4402L27.9413 99.1524C26.2957 100.081 24.7452 100.113 23.3409 99.616C21.9367 99.1179 20.6909 98.0477 19.8651 96.7381C19.0393 95.4273 18.6466 93.896 18.8453 92.5197C19.044 91.1434 19.7818 89.8921 21.4287 88.9553L30.0261 84.0694C30.0273 84.0682 30.0285 84.0682 30.0309 84.0694L30.0297 84.0682C30.4391 83.8347 30.5818 83.3127 30.3474 82.9028C30.1142 82.4928 29.593 82.351 29.1837 82.5846H29.1706C26.5527 84.0861 22.8782 83.0589 21.098 80.218H21.0968C19.2988 77.3735 20.0568 73.8891 22.6782 72.3781H22.6771C22.6782 72.3781 22.6794 72.3781 22.6794 72.3769L23.328 72.0016C23.6623 71.8145 23.8313 71.426 23.7397 71.053C23.6493 70.68 23.3208 70.4131 22.9377 70.4023L22.9359 70.4121Z" fill="black"/>
</svg>
