<svg width="74" height="73" viewBox="0 0 74 73" fill="none" xmlns="http://www.w3.org/2000/svg">
<path d="M19.2854 65.8371L1.81934 70.9415L7.02692 53.8218C17.7933 51.9005 21.4211 56.2879 19.2854 65.8371Z" stroke="black" stroke-width="2" stroke-miterlimit="10"/>
<path d="M73 1.71685C72.8244 30.3931 46.5229 53.5349 39.0625 59.5283C37.98 60.3886 36.4002 60.3312 35.4055 59.3562L24.6684 48.832L13.9313 38.3078C12.9366 37.3328 12.8488 35.7843 13.7557 34.7233C19.8703 27.4108 43.4803 1.63083 72.7367 1.45877C72.8537 1.43009 73 1.57346 73 1.71685Z" stroke="black" stroke-width="2" stroke-miterlimit="10"/>
<path d="M52.9593 29.533C57.6935 29.533 61.5314 25.7712 61.5314 21.1308C61.5314 16.4904 57.6935 12.7286 52.9593 12.7286C48.225 12.7286 44.3872 16.4904 44.3872 21.1308C44.3872 25.7712 48.225 29.533 52.9593 29.533Z" stroke="black" stroke-width="2" stroke-miterlimit="10"/>
<path d="M36.0783 60.0158L13.1998 37.5909C12.5562 36.96 11.6492 36.702 10.7715 36.8453L10.1572 36.96C7.99223 37.3615 7.173 39.971 8.72359 41.4909L32.0995 64.4032C33.6501 65.9231 36.3416 65.1202 36.722 62.9981L36.839 62.3959C37.0146 61.5356 36.722 60.6466 36.0783 60.0158Z" stroke="black" stroke-width="2" stroke-miterlimit="10"/>
<path d="M20.8945 26.952C25.9266 38.3365 34.6158 46.8534 46.962 52.5026" stroke="black" stroke-width="2" stroke-miterlimit="10"/>
<path d="M52.696 59.557L41.1982 70.8268" stroke="black" stroke-width="2" stroke-miterlimit="10"/>
<path d="M41.1107 65.235L35.3472 70.9129" stroke="black" stroke-width="2" stroke-miterlimit="10"/>
<path d="M11.1227 24.0845L1 33.9778" stroke="black" stroke-width="2" stroke-miterlimit="10"/>
<path d="M18.0856 22.5646L13.6094 26.9521" stroke="black" stroke-width="2" stroke-miterlimit="10"/>
<path d="M48.8049 1L46.4644 3.2941" stroke="black" stroke-width="2" stroke-miterlimit="10"/>
<path d="M64.2814 41.491L61.9409 43.7851" stroke="black" stroke-width="2" stroke-miterlimit="10"/>
</svg>
