<svg width="122" height="122" viewBox="0 0 122 122" fill="none" xmlns="http://www.w3.org/2000/svg">
<path d="M113.184 90.5949C102.89 108.752 83.3511 121 61 121C27.8785 121 1 94.1215 1 61C1 27.8785 27.8785 1 61 1C94.1215 1 121 27.8785 121 61C121 67.9579 119.809 74.6775 117.616 80.9206" stroke="#0B0033" stroke-width="2" stroke-miterlimit="10"/>
<path d="M65.0032 14.4868H60.4282C58.5219 14.4868 56.8062 15.7259 56.2343 17.5845L42.8428 61.1905L56.2343 104.797C56.8062 106.655 58.5219 107.894 60.4282 107.894H64.6696" stroke="#0B0033" stroke-width="2" stroke-miterlimit="10"/>
<path d="M79.5861 61.1909L65.3367 107.561C65.1937 107.99 64.6219 107.99 64.4789 107.561L50.2295 61.1909L64.4789 14.8207C64.6219 14.3918 65.1937 14.3918 65.3367 14.8207L79.5861 61.1909Z" stroke="#0B0033" stroke-width="2" stroke-miterlimit="10"/>
<path d="M75.4878 26.7822C88.8317 32.4057 98.1725 45.6067 98.1725 60.9998C98.1725 76.2977 88.927 89.451 75.6784 95.1698" stroke="#0B0033" stroke-width="2" stroke-miterlimit="10"/>
<path d="M46.3692 26.7822C33.0253 32.4057 23.6846 45.6067 23.6846 60.9998C23.6846 76.2977 32.93 89.451 46.1786 95.1698" stroke="#0B0033" stroke-width="2" stroke-miterlimit="10"/>
<path d="M104.416 60.9521H115.901" stroke="#0B0033" stroke-width="2" stroke-miterlimit="10"/>
<path d="M17.5844 61.0479H6.09912" stroke="#0B0033" stroke-width="2" stroke-miterlimit="10"/>
<path d="M91.6909 30.309L99.7926 22.1597" stroke="#0B0033" stroke-width="2" stroke-miterlimit="10"/>
<path d="M30.2613 30.3569L22.1597 22.2075" stroke="#0B0033" stroke-width="2" stroke-miterlimit="10"/>
<path d="M30.3568 91.7388L22.2075 99.8881" stroke="#0B0033" stroke-width="2" stroke-miterlimit="10"/>
<path d="M91.7388 91.6909L99.8404 99.8402" stroke="#0B0033" stroke-width="2" stroke-miterlimit="10"/>
<path d="M50.2295 61H79.3478" stroke="#0B0033" stroke-width="2" stroke-miterlimit="10"/>
</svg>
