<svg width="143" height="122" viewBox="0 0 143 122" fill="none" xmlns="http://www.w3.org/2000/svg">
<path d="M114.271 95.8862H13.5264C10.5822 95.8862 8.17334 93.4766 8.17334 90.5315V6.35476C8.17334 3.40964 10.5822 1 13.5264 1H136.647C139.591 1 142 3.40964 142 6.35476V90.5315C142 93.4766 139.591 95.8862 136.647 95.8862H128.939" stroke="#0B0033" stroke-width="2" stroke-miterlimit="10"/>
<path d="M18.9863 95.8862H6.35308C3.40888 95.8862 1 93.4766 1 90.5315V6.35476C1 3.40964 3.40888 1 6.35308 1H18.9863" stroke="#0B0033" stroke-width="2" stroke-miterlimit="10"/>
<path d="M48.1069 121H102.012" stroke="#0B0033" stroke-width="2" stroke-miterlimit="10"/>
<path d="M59.7231 121H90.3962L86.1138 95.8862H64.0056L61.5967 110.023" stroke="#0B0033" stroke-width="2" stroke-miterlimit="10"/>
<path d="M8.17334 81.9639H142" stroke="#0B0033" stroke-width="2" stroke-miterlimit="10"/>
<path d="M65.5046 14.3335L47.1971 32.6467C47.0365 32.8074 47.0365 33.0752 47.1971 33.2358L65.5046 51.5491" stroke="#0B0033" stroke-width="2" stroke-miterlimit="10"/>
<path d="M75.354 28.5234L93.6616 46.8367C93.8222 46.9973 93.8222 47.2651 93.6616 47.4258L75.354 65.739" stroke="#0B0033" stroke-width="2" stroke-miterlimit="10"/>
</svg>
