<svg width="66" height="68" viewBox="0 0 66 68" fill="none" xmlns="http://www.w3.org/2000/svg">
<path d="M5.57888 4.9353C4.40435 4.9353 3.44336 5.8861 3.44336 7.04818V64.8883C3.44336 66.0503 4.40435 67.0011 5.57888 67.0011C6.75342 67.0011 7.71441 66.0503 7.71441 64.8883V7.04818C7.71441 5.8861 6.75342 4.9353 5.57888 4.9353Z" stroke="black" stroke-width="2" stroke-miterlimit="10"/>
<path d="M0 1H11.1581" stroke="black" stroke-width="2" stroke-miterlimit="10"/>
<path d="M47.1151 43.1256H11.1582V4.96167H47.1151C48.5833 4.96167 49.7845 6.15016 49.7845 7.60277V40.4845C49.7845 41.9371 48.5833 43.1256 47.1151 43.1256Z" stroke="black" stroke-width="2" stroke-miterlimit="10"/>
<path d="M47.1152 43.1256L29.1768 48.3021C29.1768 49.7547 30.378 50.9432 31.8462 50.9432H65.0002V17.0844H53.9755" stroke="black" stroke-width="2" stroke-miterlimit="10"/>
</svg>
