<svg width="140" height="122" viewBox="0 0 140 122" fill="none" xmlns="http://www.w3.org/2000/svg">
<path d="M30.8945 70.5249H35.5276C38.5611 70.5249 41.0432 72.9672 41.0432 75.9523V115.572C41.0432 118.557 38.5611 121 35.5276 121H30.8945" stroke="#0B0033" stroke-width="2" stroke-miterlimit="10"/>
<path d="M109.105 70.5249H104.472C101.439 70.5249 98.9565 72.9672 98.9565 75.9523V115.572C98.9565 118.557 101.439 121 104.472 121H109.105" stroke="#0B0033" stroke-width="2" stroke-miterlimit="10"/>
<path d="M30.8945 121H11.9209C5.9089 121 1 116.169 1 110.254V81.2712C1 75.3553 5.9089 70.5249 11.9209 70.5249H30.8945V121Z" stroke="#0B0033" stroke-width="2" stroke-miterlimit="10"/>
<path d="M128.079 121C134.091 121 139 116.169 139 110.254V81.2712C139 75.3553 134.091 70.5249 128.079 70.5249H109.105V121H118.041" stroke="#0B0033" stroke-width="2" stroke-miterlimit="10"/>
<path d="M29.4605 28.9512L21.6284 21.1899" stroke="#0B0033" stroke-width="2" stroke-miterlimit="10"/>
<path d="M110.65 28.9512L118.482 21.1899" stroke="#0B0033" stroke-width="2" stroke-miterlimit="10"/>
<path d="M125.983 57.5535V45.8303C125.983 21.0813 105.63 1.0542 80.4794 1.0542H59.6306C34.4795 1.0542 14.127 21.0813 14.127 45.8303V70.5794" stroke="#0B0033" stroke-width="2" stroke-miterlimit="10"/>
<path d="M115.559 70.525V46.9158C115.559 27.2686 99.3431 11.312 79.3767 11.312H60.7341C40.7676 11.312 24.5518 27.2686 24.5518 46.9158V59.1275" stroke="#0B0033" stroke-width="2" stroke-miterlimit="10"/>
</svg>
